<svg width="900" height="217" viewBox="0 0 900 217" fill="none" xmlns="http://www.w3.org/2000/svg">
<g clip-path="url(#clip0_113_38)">
<rect width="900" height="216.04" fill="white"/>
<path d="M89.8175 86.8384C89.5535 88.9504 89.0495 91.0864 88.2575 92.5504C88.6415 92.6704 89.3615 93.0064 89.6495 93.2224C90.4415 91.6864 91.0175 89.3824 91.3535 87.1264L89.8175 86.8384ZM94.7615 87.1024C95.3855 88.4944 95.9855 90.2944 96.2255 91.4944L97.5935 91.0384C97.3535 89.8624 96.7055 88.0384 96.0575 86.6704L94.7615 87.1024ZM94.1375 81.4864C94.5455 82.1344 94.9295 82.9024 95.2655 83.6464L91.7135 83.7904C93.2975 81.7264 95.1215 78.9184 96.4895 76.6384L94.9775 75.9664C94.3535 77.2384 93.4895 78.7744 92.5535 80.2624C92.1695 79.7824 91.6895 79.2304 91.1615 78.7024C92.0495 77.3584 93.0575 75.4624 93.8735 73.8784L92.3135 73.2544C91.8095 74.5744 90.9695 76.3744 90.1535 77.7184C89.9135 77.5024 89.6975 77.2864 89.4575 77.0944L88.5455 78.2704C89.6495 79.2544 90.8975 80.5984 91.6415 81.6544C91.1135 82.4464 90.5615 83.2144 90.0575 83.8624L88.4735 83.9344L88.6175 85.5184C89.7215 85.4464 91.0175 85.3744 92.3855 85.3024V95.1904H93.9695V85.2064L95.8655 85.0864C96.0575 85.5904 96.2015 86.0704 96.2975 86.4784L97.6415 85.8784C97.3295 84.5824 96.3695 82.5184 95.3855 80.9824L94.1375 81.4864ZM103.306 82.5424V86.3104H100.162V82.5424H103.306ZM108.082 86.3104H104.818V82.5424H108.082V86.3104ZM101.962 93.4864C100.45 93.4864 100.162 93.2704 100.162 92.2624V87.8704H108.082V88.7824H109.714V80.9584H99.8495C101.674 79.7344 102.946 78.0304 103.594 76.0624H107.698C107.506 77.8864 107.314 78.6784 107.05 78.9664C106.858 79.1344 106.69 79.1584 106.354 79.1584C106.018 79.1584 105.202 79.1584 104.314 79.0624C104.554 79.4704 104.722 80.0704 104.746 80.5504C105.658 80.5984 106.594 80.5984 107.074 80.5504C107.626 80.5264 108.034 80.3824 108.37 80.0224C108.898 79.4944 109.162 78.2224 109.45 75.1984C109.474 74.9344 109.522 74.5024 109.522 74.5024H97.6175V76.0624H101.794C101.026 78.1264 99.2495 79.9024 96.7295 80.7904C97.0415 81.1024 97.5455 81.7024 97.7375 82.0384C98.0255 81.9424 98.2895 81.8224 98.5535 81.7024V92.2384C98.5535 94.4944 99.3215 95.0224 101.866 95.0224H107.434C109.738 95.0224 110.29 94.1344 110.554 90.9664C110.074 90.8704 109.402 90.5824 108.994 90.2944C108.85 92.9584 108.634 93.4864 107.338 93.4864H101.962ZM99.4415 101.806C99.0095 102.934 98.1695 104.614 97.5695 105.646L98.7935 106.198C99.4655 105.238 100.282 103.726 101.026 102.43L99.4415 101.806ZM91.9295 105.502C91.6895 104.542 90.9455 103.054 90.2015 101.926L88.9055 102.502C89.6255 103.63 90.3455 105.166 90.5855 106.15L91.9295 105.502ZM97.3055 111.502H92.0975L93.3695 111.046C93.2015 110.182 92.6735 108.838 92.0495 107.854L90.6575 108.334C91.2095 109.342 91.7375 110.638 91.8815 111.502H89.5535V113.014H93.9455V115.462H90.1535V116.95H93.9455V119.782C91.9775 120.046 90.1775 120.262 88.7375 120.43L89.0015 122.11C92.0495 121.702 96.5375 121.078 100.714 120.478L100.666 118.894L95.6015 119.566V116.95H99.5375V115.462H95.6015V113.014H100.042V111.502H97.4975C97.9535 110.662 98.5295 109.414 99.0335 108.286L97.4255 107.806C97.1135 108.79 96.5375 110.23 96.0575 111.142L97.3055 111.502ZM110.53 107.638H107.986V101.398H106.258V107.638H100.906V106.318H97.1615V101.35H95.6735V106.318H93.8495V101.35H92.3855V106.318H88.6655V107.806H100.642V109.318H106.258V120.958C106.258 121.366 106.114 121.51 105.706 121.51C105.322 121.534 104.002 121.534 102.562 121.486C102.826 121.942 103.114 122.71 103.21 123.166C105.154 123.166 106.306 123.118 107.026 122.854C107.698 122.542 107.986 122.038 107.986 120.958V109.318H110.53V107.638ZM105.106 116.638C104.842 115.174 103.906 112.942 102.898 111.214L101.41 111.742C102.394 113.494 103.282 115.774 103.522 117.214L105.106 116.638ZM93.1775 142.502V140.678H98.6015V142.502H93.1775ZM93.1775 137.678H98.6015V139.478H93.1775V137.678ZM106.066 137.678V139.478H100.354V137.678H106.066ZM106.066 142.502H100.354V140.678H106.066V142.502ZM100.354 148.934V146.87H108.754V145.43H100.354V143.774H107.866V136.382H100.354V134.942H110.122V133.478H100.354V131.63C103.162 131.414 105.778 131.15 107.818 130.766L106.858 129.374C103.09 130.07 96.3695 130.502 90.8255 130.646C90.9935 131.03 91.1855 131.63 91.2095 132.062C93.5615 132.014 96.1055 131.918 98.6015 131.75V133.478H89.0255V134.942H98.6015V136.382H91.4255V143.774H98.6015V145.43H90.7055V146.87H98.6015V148.934H88.9055V150.398H110.266V148.934H100.354ZM103.69 171.75C102.946 173.118 101.89 174.198 100.498 175.038C98.6975 174.606 96.8015 174.198 94.9055 173.838C95.3855 173.19 95.8895 172.47 96.3935 171.75H103.69ZM92.1695 163.35H95.7935V166.59H92.1695V163.35ZM97.4975 159.87H101.362V161.886H97.4975V159.87ZM107.05 163.35V166.59H103.066V163.35H107.05ZM97.4975 166.59V163.35H101.362V166.59H97.4975ZM110.41 171.75V170.262H97.4015C97.8815 169.566 98.3375 168.87 98.7455 168.222L98.0975 168.054H108.802V161.886H103.066V159.87H109.81V158.286H89.3135V159.87H95.7935V161.886H90.4895V168.054H96.8015C96.3695 168.75 95.8655 169.494 95.3615 170.262H88.7375V171.75H94.3295C93.4175 173.022 92.5295 174.27 91.7855 175.206L93.4655 175.782L93.9695 175.134C95.4335 175.422 96.8735 175.734 98.2895 176.07C95.9135 176.934 92.8895 177.366 89.0735 177.582C89.3615 177.966 89.6255 178.614 89.7455 179.118C94.4975 178.782 98.1455 178.062 100.834 176.694C103.882 177.486 106.57 178.374 108.586 179.19L109.666 177.75C107.818 177.054 105.37 176.286 102.634 175.566C103.954 174.558 104.938 173.31 105.658 171.75H110.41Z" fill="#333333"/>
<path d="M187.005 89.9958L187.197 89.3958H189.189C189.093 96.8838 188.973 99.4998 188.589 100.052C188.421 100.316 188.229 100.388 187.917 100.364C187.581 100.364 186.789 100.364 185.925 100.292C186.165 100.7 186.333 101.276 186.357 101.708C187.197 101.78 188.061 101.756 188.589 101.708C189.165 101.636 189.573 101.468 189.933 100.964C190.485 100.124 190.581 97.4118 190.725 88.7958C190.725 88.5558 190.749 88.0278 190.749 88.0278H187.605C187.845 87.2118 188.085 86.2998 188.301 85.4598H196.725V83.9238H182.469V85.4598H186.645C186.309 86.9478 185.805 88.6038 185.397 89.7798L187.005 89.9958ZM186.189 96.7398H184.197V92.0838H186.189V96.7398ZM187.509 90.7878H182.901V99.5958H184.197V98.0358H187.509V90.7878ZM182.805 95.7798C182.421 95.1318 180.717 92.4678 180.093 91.5798V89.7558H182.685V88.1238H180.093V82.9398H178.485V88.1238H175.461V89.7558H178.317C177.669 92.9958 176.325 96.7878 174.957 98.7798C175.245 99.1638 175.653 99.8358 175.845 100.268C176.829 98.7318 177.765 96.2838 178.485 93.7398V104.828H180.093V93.5718C180.765 94.7718 181.557 96.3078 181.893 97.0758L182.805 95.7798ZM182.061 104.036H197.133V102.5H182.061V104.036ZM195.717 88.9638L195.429 89.0118H191.421V90.4038H195.021C194.757 92.2038 194.325 93.8358 193.725 95.2278C193.149 93.9318 192.717 92.4678 192.405 90.9558L191.205 91.2438C191.589 93.2598 192.189 95.1558 192.981 96.8118C192.261 98.0838 191.397 99.1158 190.437 99.7878C190.773 100.028 191.205 100.532 191.421 100.892C192.309 100.22 193.101 99.3558 193.797 98.2758C194.517 99.4038 195.357 100.34 196.341 101.012C196.581 100.604 197.061 100.028 197.397 99.7638C196.293 99.1158 195.357 98.1078 194.589 96.8598C195.573 94.8438 196.269 92.2998 196.605 89.1798L195.717 88.9638ZM179.757 124.212V122.388H185.181V124.212H179.757ZM179.757 119.388H185.181V121.188H179.757V119.388ZM192.645 119.388V121.188H186.933V119.388H192.645ZM192.645 124.212H186.933V122.388H192.645V124.212ZM186.933 130.644V128.58H195.333V127.14H186.933V125.484H194.445V118.092H186.933V116.652H196.701V115.188H186.933V113.34C189.741 113.124 192.357 112.86 194.397 112.476L193.437 111.084C189.669 111.78 182.949 112.212 177.405 112.356C177.573 112.74 177.765 113.34 177.789 113.772C180.141 113.724 182.685 113.628 185.181 113.46V115.188H175.605V116.652H185.181V118.092H178.005V125.484H185.181V127.14H177.285V128.58H185.181V130.644H175.485V132.108H196.845V130.644H186.933ZM190.269 153.46C189.525 154.828 188.469 155.908 187.077 156.748C185.277 156.316 183.381 155.908 181.485 155.548C181.965 154.9 182.469 154.18 182.973 153.46H190.269ZM178.749 145.06H182.373V148.3H178.749V145.06ZM184.077 141.58H187.941V143.596H184.077V141.58ZM193.629 145.06V148.3H189.645V145.06H193.629ZM184.077 148.3V145.06H187.941V148.3H184.077ZM196.989 153.46V151.972H183.981C184.461 151.276 184.917 150.58 185.325 149.932L184.677 149.764H195.381V143.596H189.645V141.58H196.389V139.996H175.893V141.58H182.373V143.596H177.069V149.764H183.381C182.949 150.46 182.445 151.204 181.941 151.972H175.317V153.46H180.909C179.997 154.732 179.109 155.98 178.365 156.916L180.045 157.492L180.549 156.844C182.013 157.132 183.453 157.444 184.869 157.78C182.493 158.644 179.469 159.076 175.653 159.292C175.941 159.676 176.205 160.324 176.325 160.828C181.077 160.492 184.725 159.772 187.413 158.404C190.461 159.196 193.149 160.084 195.165 160.9L196.245 159.46C194.397 158.764 191.949 157.996 189.213 157.276C190.533 156.268 191.517 155.02 192.237 153.46H196.989Z" fill="#333333"/>
<path d="M282.118 91.6278H275.734V89.3238H282.118V91.6278ZM282.118 95.2758H275.734V92.9478H282.118V95.2758ZM282.118 98.9478H275.734V96.6198H282.118V98.9478ZM274.15 87.9318V100.364H283.726V87.9318H279.214C279.43 87.2118 279.646 86.4198 279.838 85.6278H284.254V84.0918H273.502V85.6278H278.014C277.918 86.3718 277.75 87.2118 277.606 87.9318H274.15ZM265.342 87.5718H267.694V91.4838H265.342V87.5718ZM273.022 101.108C272.47 100.292 271.654 99.2838 270.718 98.2038C271.63 96.3798 272.326 94.2438 272.758 91.7718L271.75 91.4358L271.462 91.4838H269.206V87.5718H271.75C271.534 88.6518 271.294 89.7318 271.054 90.4998L272.422 90.8838C272.83 89.7078 273.262 87.8838 273.646 86.2518L272.542 85.9638L272.254 86.0358H269.206V83.0838H267.694V86.0358H263.806V93.3558C263.806 96.3558 263.686 100.34 262.318 103.244C262.654 103.412 263.326 103.916 263.566 104.252C265.102 101.132 265.342 96.5718 265.342 93.3558V92.9718H270.91C270.574 94.4118 270.142 95.7558 269.59 96.9318C268.678 95.9478 267.694 94.9398 266.782 94.0518L265.702 95.1318C266.71 96.1158 267.79 97.2918 268.798 98.4438C267.646 100.388 266.182 101.9 264.526 102.932C264.838 103.196 265.414 103.82 265.63 104.228C267.238 103.172 268.678 101.684 269.878 99.7398C270.67 100.7 271.366 101.588 271.846 102.332L273.022 101.108ZM276.43 100.772C275.47 101.828 273.502 103.076 271.75 103.772C272.134 104.084 272.686 104.588 272.95 104.924C274.702 104.204 276.718 102.908 277.942 101.66L276.43 100.772ZM279.766 101.78C281.062 102.692 282.67 104.036 283.486 104.9L284.854 103.94C284.038 103.052 282.358 101.756 281.086 100.892L279.766 101.78ZM267.142 124.212V122.388H272.566V124.212H267.142ZM267.142 119.388H272.566V121.188H267.142V119.388ZM280.03 119.388V121.188H274.318V119.388H280.03ZM280.03 124.212H274.318V122.388H280.03V124.212ZM274.318 130.644V128.58H282.718V127.14H274.318V125.484H281.83V118.092H274.318V116.652H284.086V115.188H274.318V113.34C277.126 113.124 279.742 112.86 281.782 112.476L280.822 111.084C277.054 111.78 270.334 112.212 264.79 112.356C264.958 112.74 265.15 113.34 265.174 113.772C267.526 113.724 270.07 113.628 272.566 113.46V115.188H262.99V116.652H272.566V118.092H265.39V125.484H272.566V127.14H264.67V128.58H272.566V130.644H262.87V132.108H284.23V130.644H274.318ZM277.654 153.46C276.91 154.828 275.854 155.908 274.462 156.748C272.662 156.316 270.766 155.908 268.87 155.548C269.35 154.9 269.854 154.18 270.358 153.46H277.654ZM266.134 145.06H269.758V148.3H266.134V145.06ZM271.462 141.58H275.326V143.596H271.462V141.58ZM281.014 145.06V148.3H277.03V145.06H281.014ZM271.462 148.3V145.06H275.326V148.3H271.462ZM284.374 153.46V151.972H271.366C271.846 151.276 272.302 150.58 272.71 149.932L272.062 149.764H282.766V143.596H277.03V141.58H283.774V139.996H263.278V141.58H269.758V143.596H264.454V149.764H270.766C270.334 150.46 269.83 151.204 269.326 151.972H262.702V153.46H268.294C267.382 154.732 266.494 155.98 265.75 156.916L267.43 157.492L267.934 156.844C269.398 157.132 270.838 157.444 272.254 157.78C269.878 158.644 266.854 159.076 263.038 159.292C263.326 159.676 263.59 160.324 263.71 160.828C268.462 160.492 272.11 159.772 274.798 158.404C277.846 159.196 280.534 160.084 282.55 160.9L283.63 159.46C281.782 158.764 279.334 157.996 276.598 157.276C277.918 156.268 278.902 155.02 279.622 153.46H284.374Z" fill="#333333"/>
<path d="M372.907 86.7192C372.331 85.3752 370.915 83.4072 369.643 81.9912L368.227 82.6632C369.523 84.1272 370.891 86.1672 371.419 87.4872L372.907 86.7192ZM356.587 89.2632H359.587V87.5832H356.587V83.5272C357.715 83.2632 358.771 82.9272 359.635 82.5672L358.387 81.2232C356.635 82.0152 353.491 82.7112 350.803 83.1432C351.019 83.5512 351.259 84.1272 351.355 84.5352C352.459 84.3672 353.683 84.1752 354.859 83.9352V87.5832H350.947V89.2632H354.619C353.659 91.9992 352.003 95.0952 350.491 96.7752C350.779 97.2072 351.211 97.9032 351.379 98.4072C352.603 96.9432 353.875 94.5432 354.859 92.1192V102.727H356.587V92.4552C357.403 93.4392 358.387 94.7592 358.771 95.4312L359.851 94.0152C359.371 93.4632 357.331 91.3512 356.587 90.7272V89.2632ZM362.035 82.2072C361.315 83.8392 360.187 85.4952 358.891 86.5992C359.323 86.8392 360.043 87.2712 360.379 87.5352C361.603 86.3352 362.899 84.4872 363.667 82.6392L362.035 82.2072ZM362.467 95.7192V93.1512H369.811V95.7192H362.467ZM369.811 89.2152V91.7112H362.467V89.2152H369.811ZM371.515 87.6552H366.787V80.8872H365.059V87.6552H360.811V102.775H362.467V97.2552H369.811V100.807C369.811 101.095 369.691 101.191 369.403 101.191C369.139 101.215 368.179 101.215 367.123 101.191C367.363 101.599 367.627 102.319 367.723 102.751C369.211 102.751 370.123 102.727 370.723 102.463C371.323 102.175 371.515 101.695 371.515 100.807V87.6552ZM355.315 122.135V120.311H360.739V122.135H355.315ZM355.315 117.311H360.739V119.111H355.315V117.311ZM368.203 117.311V119.111H362.491V117.311H368.203ZM368.203 122.135H362.491V120.311H368.203V122.135ZM362.491 128.567V126.503H370.891V125.063H362.491V123.407H370.003V116.015H362.491V114.575H372.259V113.111H362.491V111.263C365.299 111.047 367.915 110.783 369.955 110.399L368.995 109.007C365.227 109.703 358.507 110.135 352.963 110.279C353.131 110.663 353.323 111.263 353.347 111.695C355.699 111.647 358.243 111.551 360.739 111.383V113.111H351.163V114.575H360.739V116.015H353.563V123.407H360.739V125.063H352.843V126.503H360.739V128.567H351.043V130.031H372.403V128.567H362.491ZM365.827 151.383C365.083 152.751 364.027 153.831 362.635 154.671C360.835 154.239 358.939 153.831 357.043 153.471C357.523 152.823 358.027 152.103 358.531 151.383H365.827ZM354.307 142.983H357.931V146.223H354.307V142.983ZM359.635 139.503H363.499V141.519H359.635V139.503ZM369.187 142.983V146.223H365.203V142.983H369.187ZM359.635 146.223V142.983H363.499V146.223H359.635ZM372.547 151.383V149.895H359.539C360.019 149.199 360.475 148.503 360.883 147.855L360.235 147.687H370.939V141.519H365.203V139.503H371.947V137.919H351.451V139.503H357.931V141.519H352.627V147.687H358.939C358.507 148.383 358.003 149.127 357.499 149.895H350.875V151.383H356.467C355.555 152.655 354.667 153.903 353.923 154.839L355.603 155.415L356.107 154.767C357.571 155.055 359.011 155.367 360.427 155.703C358.051 156.567 355.027 156.999 351.211 157.215C351.499 157.599 351.763 158.247 351.883 158.751C356.635 158.415 360.283 157.695 362.971 156.327C366.019 157.119 368.707 158.007 370.723 158.823L371.803 157.383C369.955 156.687 367.507 155.919 364.771 155.199C366.091 154.191 367.075 152.943 367.795 151.383H372.547Z" fill="#333333"/>
<path d="M453.462 84.6287V89.1647H447.174V84.6287H453.462ZM455.142 90.7007V83.1167H445.518V92.4287H447.174V90.7007H455.142ZM456.414 79.0607H444.318V80.6207H456.414V79.0607ZM460.182 74.8607H440.502V95.5967H442.23V76.5647H458.43V93.2927C458.43 93.6767 458.286 93.8207 457.854 93.8447C457.446 93.8687 456.054 93.8687 454.542 93.8207C454.83 94.3007 455.118 95.0687 455.19 95.5727C457.254 95.5727 458.454 95.5247 459.198 95.2367C459.918 94.9247 460.182 94.3967 460.182 93.2927V74.8607ZM443.934 105.141C444.366 106.053 444.798 107.133 444.966 107.853L446.526 107.277C446.406 106.725 446.07 105.885 445.686 105.141H450.03V103.629H443.79C444.078 103.077 444.318 102.525 444.534 101.949L442.854 101.517C442.038 103.605 440.694 105.717 439.206 107.085C439.614 107.325 440.358 107.829 440.67 108.117C441.486 107.301 442.254 106.269 442.926 105.141H443.934ZM443.742 118.629C445.278 119.661 447.006 121.197 447.774 122.301L449.142 121.173C448.35 120.069 446.55 118.581 445.038 117.621L443.742 118.629ZM461.166 113.925V112.365H451.182V110.229H458.91V108.717H451.182V107.061H450.798C451.326 106.509 451.83 105.837 452.286 105.141H453.918C454.638 106.053 455.334 107.205 455.598 107.997L457.134 107.325C456.87 106.725 456.366 105.885 455.814 105.141H460.926V103.629H453.15C453.438 103.053 453.654 102.501 453.87 101.901L452.166 101.517C451.494 103.509 450.198 105.453 448.734 106.701C448.878 106.797 449.142 106.941 449.382 107.109V108.717H441.894V110.229H449.382V112.365H439.542V113.925H454.254V116.037H440.31V117.597H454.254V121.413C454.254 121.749 454.158 121.845 453.726 121.845C453.294 121.893 451.878 121.893 450.246 121.845C450.51 122.325 450.798 122.997 450.894 123.525C452.886 123.525 454.206 123.501 454.998 123.237C455.814 122.949 456.054 122.493 456.054 121.437V117.597H460.542V116.037H456.054V113.925H461.166ZM443.934 142.885V141.061H449.358V142.885H443.934ZM443.934 138.061H449.358V139.861H443.934V138.061ZM456.822 138.061V139.861H451.11V138.061H456.822ZM456.822 142.885H451.11V141.061H456.822V142.885ZM451.11 149.317V147.253H459.51V145.813H451.11V144.157H458.622V136.765H451.11V135.325H460.878V133.861H451.11V132.013C453.918 131.797 456.534 131.533 458.574 131.149L457.614 129.757C453.846 130.453 447.126 130.885 441.582 131.029C441.75 131.413 441.942 132.013 441.966 132.445C444.318 132.397 446.862 132.301 449.358 132.133V133.861H439.782V135.325H449.358V136.765H442.182V144.157H449.358V145.813H441.462V147.253H449.358V149.317H439.662V150.781H461.022V149.317H451.11ZM454.446 172.133C453.702 173.501 452.646 174.581 451.254 175.421C449.454 174.989 447.558 174.581 445.662 174.221C446.142 173.573 446.646 172.853 447.15 172.133H454.446ZM442.926 163.733H446.55V166.973H442.926V163.733ZM448.254 160.253H452.118V162.269H448.254V160.253ZM457.806 163.733V166.973H453.822V163.733H457.806ZM448.254 166.973V163.733H452.118V166.973H448.254ZM461.166 172.133V170.645H448.158C448.638 169.949 449.094 169.253 449.502 168.605L448.854 168.437H459.558V162.269H453.822V160.253H460.566V158.669H440.07V160.253H446.55V162.269H441.246V168.437H447.558C447.126 169.133 446.622 169.877 446.118 170.645H439.494V172.133H445.086C444.174 173.405 443.286 174.653 442.542 175.589L444.222 176.165L444.726 175.517C446.19 175.805 447.63 176.117 449.046 176.453C446.67 177.317 443.646 177.749 439.83 177.965C440.118 178.349 440.382 178.997 440.502 179.501C445.254 179.165 448.902 178.445 451.59 177.077C454.638 177.869 457.326 178.757 459.342 179.573L460.422 178.133C458.574 177.437 456.126 176.669 453.39 175.949C454.71 174.941 455.694 173.693 456.414 172.133H461.166Z" fill="#333333"/>
<path d="M550.951 89.1362C550.375 87.7922 548.959 85.8242 547.687 84.4082L546.271 85.0802C547.567 86.5442 548.935 88.5842 549.463 89.9042L550.951 89.1362ZM534.631 91.6802H537.631V90.0002H534.631V85.9442C535.759 85.6802 536.815 85.3442 537.679 84.9842L536.431 83.6402C534.679 84.4322 531.535 85.1282 528.847 85.5602C529.063 85.9682 529.303 86.5442 529.399 86.9522C530.503 86.7842 531.727 86.5922 532.903 86.3522V90.0002H528.991V91.6802H532.663C531.703 94.4162 530.047 97.5122 528.535 99.1922C528.823 99.6242 529.255 100.32 529.423 100.824C530.647 99.3602 531.919 96.9602 532.903 94.5362V105.144H534.631V94.8722C535.447 95.8562 536.431 97.1762 536.815 97.8482L537.895 96.4322C537.415 95.8802 535.375 93.7682 534.631 93.1442V91.6802ZM540.079 84.6242C539.359 86.2562 538.231 87.9122 536.935 89.0162C537.367 89.2562 538.087 89.6882 538.423 89.9522C539.647 88.7522 540.943 86.9042 541.711 85.0562L540.079 84.6242ZM540.511 98.1362V95.5682H547.855V98.1362H540.511ZM547.855 91.6322V94.1282H540.511V91.6322H547.855ZM549.559 90.0722H544.831V83.3042H543.103V90.0722H538.855V105.192H540.511V99.6722H547.855V103.224C547.855 103.512 547.735 103.608 547.447 103.608C547.183 103.632 546.223 103.632 545.167 103.608C545.407 104.016 545.671 104.736 545.767 105.168C547.255 105.168 548.167 105.144 548.767 104.88C549.367 104.592 549.559 104.112 549.559 103.224V90.0722ZM533.359 124.552V122.728H538.783V124.552H533.359ZM533.359 119.728H538.783V121.528H533.359V119.728ZM546.247 119.728V121.528H540.535V119.728H546.247ZM546.247 124.552H540.535V122.728H546.247V124.552ZM540.535 130.984V128.92H548.935V127.48H540.535V125.824H548.047V118.432H540.535V116.992H550.303V115.528H540.535V113.68C543.343 113.464 545.959 113.2 547.999 112.816L547.039 111.424C543.271 112.12 536.551 112.552 531.007 112.696C531.175 113.08 531.367 113.68 531.391 114.112C533.743 114.064 536.287 113.968 538.783 113.8V115.528H529.207V116.992H538.783V118.432H531.607V125.824H538.783V127.48H530.887V128.92H538.783V130.984H529.087V132.448H550.447V130.984H540.535ZM543.871 153.8C543.127 155.168 542.071 156.248 540.679 157.088C538.879 156.656 536.983 156.248 535.087 155.888C535.567 155.24 536.071 154.52 536.575 153.8H543.871ZM532.351 145.4H535.975V148.64H532.351V145.4ZM537.679 141.92H541.543V143.936H537.679V141.92ZM547.231 145.4V148.64H543.247V145.4H547.231ZM537.679 148.64V145.4H541.543V148.64H537.679ZM550.591 153.8V152.312H537.583C538.063 151.616 538.519 150.92 538.927 150.272L538.279 150.104H548.983V143.936H543.247V141.92H549.991V140.336H529.495V141.92H535.975V143.936H530.671V150.104H536.983C536.551 150.8 536.047 151.544 535.543 152.312H528.919V153.8H534.511C533.599 155.072 532.711 156.32 531.967 157.256L533.647 157.832L534.151 157.184C535.615 157.472 537.055 157.784 538.471 158.12C536.095 158.984 533.071 159.416 529.255 159.632C529.543 160.016 529.807 160.664 529.927 161.168C534.679 160.832 538.327 160.112 541.015 158.744C544.063 159.536 546.751 160.424 548.767 161.24L549.847 159.8C547.999 159.104 545.551 158.336 542.815 157.616C544.135 156.608 545.119 155.36 545.839 153.8H550.591Z" fill="#333333"/>
<path d="M635.343 91.9682H628.959V89.6642H635.343V91.9682ZM635.343 95.6162H628.959V93.2882H635.343V95.6162ZM635.343 99.2882H628.959V96.9602H635.343V99.2882ZM627.375 88.2722V100.704H636.951V88.2722H632.439C632.655 87.5522 632.871 86.7602 633.063 85.9682H637.479V84.4322H626.727V85.9682H631.239C631.143 86.7122 630.975 87.5522 630.831 88.2722H627.375ZM618.567 87.9122H620.919V91.8242H618.567V87.9122ZM626.247 101.448C625.695 100.632 624.879 99.6242 623.943 98.5442C624.855 96.7202 625.551 94.5842 625.983 92.1122L624.975 91.7762L624.687 91.8242H622.431V87.9122H624.975C624.759 88.9922 624.519 90.0722 624.279 90.8402L625.647 91.2242C626.055 90.0482 626.487 88.2242 626.871 86.5922L625.767 86.3042L625.479 86.3762H622.431V83.4242H620.919V86.3762H617.031V93.6962C617.031 96.6962 616.911 100.68 615.543 103.584C615.879 103.752 616.551 104.256 616.791 104.592C618.327 101.472 618.567 96.9122 618.567 93.6962V93.3122H624.135C623.799 94.7522 623.367 96.0962 622.815 97.2722C621.903 96.2882 620.919 95.2802 620.007 94.3922L618.927 95.4722C619.935 96.4562 621.015 97.6322 622.023 98.7842C620.871 100.728 619.407 102.24 617.751 103.272C618.063 103.536 618.639 104.16 618.855 104.568C620.463 103.512 621.903 102.024 623.103 100.08C623.895 101.04 624.591 101.928 625.071 102.672L626.247 101.448ZM629.655 101.112C628.695 102.168 626.727 103.416 624.975 104.112C625.359 104.424 625.911 104.928 626.175 105.264C627.927 104.544 629.943 103.248 631.167 102L629.655 101.112ZM632.991 102.12C634.287 103.032 635.895 104.376 636.711 105.24L638.079 104.28C637.263 103.392 635.583 102.096 634.311 101.232L632.991 102.12ZM620.367 124.552V122.728H625.791V124.552H620.367ZM620.367 119.728H625.791V121.528H620.367V119.728ZM633.255 119.728V121.528H627.543V119.728H633.255ZM633.255 124.552H627.543V122.728H633.255V124.552ZM627.543 130.984V128.92H635.943V127.48H627.543V125.824H635.055V118.432H627.543V116.992H637.311V115.528H627.543V113.68C630.351 113.464 632.967 113.2 635.007 112.816L634.047 111.424C630.279 112.12 623.559 112.552 618.015 112.696C618.183 113.08 618.375 113.68 618.399 114.112C620.751 114.064 623.295 113.968 625.791 113.8V115.528H616.215V116.992H625.791V118.432H618.615V125.824H625.791V127.48H617.895V128.92H625.791V130.984H616.095V132.448H637.455V130.984H627.543ZM630.879 153.8C630.135 155.168 629.079 156.248 627.687 157.088C625.887 156.656 623.991 156.248 622.095 155.888C622.575 155.24 623.079 154.52 623.583 153.8H630.879ZM619.359 145.4H622.983V148.64H619.359V145.4ZM624.687 141.92H628.551V143.936H624.687V141.92ZM634.239 145.4V148.64H630.255V145.4H634.239ZM624.687 148.64V145.4H628.551V148.64H624.687ZM637.599 153.8V152.312H624.591C625.071 151.616 625.527 150.92 625.935 150.272L625.287 150.104H635.991V143.936H630.255V141.92H636.999V140.336H616.503V141.92H622.983V143.936H617.679V150.104H623.991C623.559 150.8 623.055 151.544 622.551 152.312H615.927V153.8H621.519C620.607 155.072 619.719 156.32 618.975 157.256L620.655 157.832L621.159 157.184C622.623 157.472 624.063 157.784 625.479 158.12C623.103 158.984 620.079 159.416 616.263 159.632C616.551 160.016 616.815 160.664 616.935 161.168C621.687 160.832 625.335 160.112 628.023 158.744C631.071 159.536 633.759 160.424 635.775 161.24L636.855 159.8C635.007 159.104 632.559 158.336 629.823 157.616C631.143 156.608 632.127 155.36 632.847 153.8H637.599Z" fill="#333333"/>
<path d="M713.011 91.9475L713.203 91.3475H715.195C715.099 98.8355 714.979 101.451 714.595 102.003C714.427 102.267 714.235 102.339 713.923 102.315C713.587 102.315 712.795 102.315 711.931 102.243C712.171 102.651 712.339 103.227 712.363 103.659C713.203 103.731 714.067 103.707 714.595 103.659C715.171 103.587 715.579 103.419 715.939 102.915C716.491 102.075 716.587 99.3635 716.731 90.7475C716.731 90.5075 716.755 89.9795 716.755 89.9795H713.611C713.851 89.1635 714.091 88.2515 714.307 87.4115H722.731V85.8755H708.475V87.4115H712.651C712.315 88.8995 711.811 90.5555 711.403 91.7315L713.011 91.9475ZM712.195 98.6915H710.203V94.0355H712.195V98.6915ZM713.515 92.7395H708.907V101.547H710.203V99.9875H713.515V92.7395ZM708.811 97.7315C708.427 97.0835 706.723 94.4195 706.099 93.5315V91.7075H708.691V90.0755H706.099V84.8915H704.491V90.0755H701.467V91.7075H704.323C703.675 94.9475 702.331 98.7395 700.963 100.731C701.251 101.115 701.659 101.787 701.851 102.219C702.835 100.683 703.771 98.2355 704.491 95.6915V106.779H706.099V95.5235C706.771 96.7235 707.563 98.2595 707.899 99.0275L708.811 97.7315ZM708.067 105.987H723.139V104.451H708.067V105.987ZM721.723 90.9155L721.435 90.9635H717.427V92.3555H721.027C720.763 94.1555 720.331 95.7875 719.731 97.1795C719.155 95.8835 718.723 94.4195 718.411 92.9075L717.211 93.1955C717.595 95.2115 718.195 97.1075 718.987 98.7635C718.267 100.035 717.403 101.067 716.443 101.739C716.779 101.979 717.211 102.483 717.427 102.843C718.315 102.171 719.107 101.307 719.803 100.227C720.523 101.355 721.363 102.291 722.347 102.963C722.587 102.555 723.067 101.979 723.403 101.715C722.299 101.067 721.363 100.059 720.595 98.8115C721.579 96.7955 722.275 94.2515 722.611 91.1315L721.723 90.9155ZM705.763 126.163V124.339H711.187V126.163H705.763ZM705.763 121.339H711.187V123.139H705.763V121.339ZM718.651 121.339V123.139H712.939V121.339H718.651ZM718.651 126.163H712.939V124.339H718.651V126.163ZM712.939 132.595V130.531H721.339V129.091H712.939V127.435H720.451V120.043H712.939V118.603H722.707V117.139H712.939V115.291C715.747 115.075 718.363 114.811 720.403 114.427L719.443 113.035C715.675 113.731 708.955 114.163 703.411 114.307C703.579 114.691 703.771 115.291 703.795 115.723C706.147 115.675 708.691 115.579 711.187 115.411V117.139H701.611V118.603H711.187V120.043H704.011V127.435H711.187V129.091H703.291V130.531H711.187V132.595H701.491V134.059H722.851V132.595H712.939ZM716.275 155.411C715.531 156.779 714.475 157.859 713.083 158.699C711.283 158.267 709.387 157.859 707.491 157.499C707.971 156.851 708.475 156.131 708.979 155.411H716.275ZM704.755 147.011H708.379V150.251H704.755V147.011ZM710.083 143.531H713.947V145.547H710.083V143.531ZM719.635 147.011V150.251H715.651V147.011H719.635ZM710.083 150.251V147.011H713.947V150.251H710.083ZM722.995 155.411V153.923H709.987C710.467 153.227 710.923 152.531 711.331 151.883L710.683 151.715H721.387V145.547H715.651V143.531H722.395V141.947H701.899V143.531H708.379V145.547H703.075V151.715H709.387C708.955 152.411 708.451 153.155 707.947 153.923H701.323V155.411H706.915C706.003 156.683 705.115 157.931 704.371 158.867L706.051 159.443L706.555 158.795C708.019 159.083 709.459 159.395 710.875 159.731C708.499 160.595 705.475 161.027 701.659 161.243C701.947 161.627 702.211 162.275 702.331 162.779C707.083 162.443 710.731 161.723 713.419 160.355C716.467 161.147 719.155 162.035 721.171 162.851L722.251 161.411C720.403 160.715 717.955 159.947 715.219 159.227C716.539 158.219 717.523 156.971 718.243 155.411H722.995Z" fill="#333333"/>
<path d="M788.091 85.2065C787.827 87.3185 787.323 89.4545 786.531 90.9185C786.915 91.0385 787.635 91.3745 787.923 91.5905C788.715 90.0545 789.291 87.7505 789.627 85.4945L788.091 85.2065ZM793.035 85.4705C793.659 86.8625 794.259 88.6625 794.499 89.8625L795.867 89.4065C795.627 88.2305 794.979 86.4065 794.331 85.0385L793.035 85.4705ZM792.411 79.8545C792.819 80.5025 793.203 81.2705 793.539 82.0145L789.987 82.1585C791.571 80.0945 793.395 77.2865 794.763 75.0065L793.251 74.3345C792.627 75.6065 791.763 77.1425 790.827 78.6305C790.443 78.1505 789.963 77.5985 789.435 77.0705C790.323 75.7265 791.331 73.8305 792.147 72.2465L790.587 71.6225C790.083 72.9425 789.243 74.7425 788.427 76.0865C788.187 75.8705 787.971 75.6545 787.731 75.4625L786.819 76.6385C787.923 77.6225 789.171 78.9665 789.915 80.0225C789.387 80.8145 788.835 81.5825 788.331 82.2305L786.747 82.3025L786.891 83.8865C787.995 83.8145 789.291 83.7425 790.659 83.6705V93.5585H792.243V83.5745L794.139 83.4545C794.331 83.9585 794.475 84.4385 794.571 84.8465L795.915 84.2465C795.603 82.9505 794.643 80.8865 793.659 79.3505L792.411 79.8545ZM801.579 80.9105V84.6785H798.435V80.9105H801.579ZM806.355 84.6785H803.091V80.9105H806.355V84.6785ZM800.235 91.8545C798.723 91.8545 798.435 91.6385 798.435 90.6305V86.2385H806.355V87.1505H807.987V79.3265H798.123C799.947 78.1025 801.219 76.3985 801.867 74.4305H805.971C805.779 76.2545 805.587 77.0465 805.323 77.3345C805.131 77.5025 804.963 77.5265 804.627 77.5265C804.291 77.5265 803.475 77.5265 802.587 77.4305C802.827 77.8385 802.995 78.4385 803.019 78.9185C803.931 78.9665 804.867 78.9665 805.347 78.9185C805.899 78.8945 806.307 78.7505 806.643 78.3905C807.171 77.8625 807.435 76.5905 807.723 73.5665C807.747 73.3025 807.795 72.8705 807.795 72.8705H795.891V74.4305H800.067C799.299 76.4945 797.523 78.2705 795.003 79.1585C795.315 79.4705 795.819 80.0705 796.011 80.4065C796.299 80.3105 796.563 80.1905 796.827 80.0705V90.6065C796.827 92.8625 797.595 93.3905 800.139 93.3905H805.707C808.011 93.3905 808.563 92.5025 808.827 89.3345C808.347 89.2385 807.675 88.9505 807.267 88.6625C807.123 91.3265 806.907 91.8545 805.611 91.8545H800.235ZM797.715 100.175C797.283 101.303 796.443 102.983 795.843 104.015L797.067 104.567C797.739 103.607 798.555 102.095 799.299 100.799L797.715 100.175ZM790.203 103.871C789.963 102.911 789.219 101.423 788.475 100.295L787.179 100.871C787.899 101.999 788.619 103.535 788.859 104.519L790.203 103.871ZM795.579 109.871H790.371L791.643 109.415C791.475 108.551 790.947 107.207 790.323 106.223L788.931 106.703C789.483 107.711 790.011 109.007 790.155 109.871H787.827V111.383H792.219V113.831H788.427V115.319H792.219V118.151C790.251 118.415 788.451 118.631 787.011 118.799L787.275 120.479C790.323 120.071 794.811 119.447 798.987 118.847L798.939 117.263L793.875 117.935V115.319H797.811V113.831H793.875V111.383H798.315V109.871H795.771C796.227 109.031 796.803 107.783 797.307 106.655L795.699 106.175C795.387 107.159 794.811 108.599 794.331 109.511L795.579 109.871ZM808.803 106.007H806.259V99.7665H804.531V106.007H799.179V104.687H795.435V99.7185H793.947V104.687H792.123V99.7185H790.659V104.687H786.939V106.175H798.915V107.687H804.531V119.327C804.531 119.735 804.387 119.879 803.979 119.879C803.595 119.903 802.275 119.903 800.835 119.855C801.099 120.311 801.387 121.079 801.483 121.535C803.427 121.535 804.579 121.487 805.299 121.223C805.971 120.911 806.259 120.407 806.259 119.327V107.687H808.803V106.007ZM803.379 115.007C803.115 113.543 802.179 111.311 801.171 109.583L799.683 110.111C800.667 111.863 801.555 114.143 801.795 115.583L803.379 115.007ZM791.451 140.871V139.047H796.875V140.871H791.451ZM791.451 136.047H796.875V137.847H791.451V136.047ZM804.339 136.047V137.847H798.627V136.047H804.339ZM804.339 140.871H798.627V139.047H804.339V140.871ZM798.627 147.303V145.239H807.027V143.799H798.627V142.143H806.139V134.751H798.627V133.311H808.395V131.847H798.627V129.999C801.435 129.783 804.051 129.519 806.091 129.135L805.131 127.743C801.363 128.439 794.643 128.871 789.099 129.015C789.267 129.399 789.459 129.999 789.483 130.431C791.835 130.383 794.379 130.287 796.875 130.119V131.847H787.299V133.311H796.875V134.751H789.699V142.143H796.875V143.799H788.979V145.239H796.875V147.303H787.179V148.767H808.539V147.303H798.627ZM801.963 170.119C801.219 171.487 800.163 172.567 798.771 173.407C796.971 172.975 795.075 172.567 793.179 172.207C793.659 171.559 794.163 170.839 794.667 170.119H801.963ZM790.443 161.719H794.067V164.959H790.443V161.719ZM795.771 158.239H799.635V160.255H795.771V158.239ZM805.323 161.719V164.959H801.339V161.719H805.323ZM795.771 164.959V161.719H799.635V164.959H795.771ZM808.683 170.119V168.631H795.675C796.155 167.935 796.611 167.239 797.019 166.591L796.371 166.423H807.075V160.255H801.339V158.239H808.083V156.655H787.587V158.239H794.067V160.255H788.763V166.423H795.075C794.643 167.119 794.139 167.863 793.635 168.631H787.011V170.119H792.603C791.691 171.391 790.803 172.639 790.059 173.575L791.739 174.151L792.243 173.503C793.707 173.791 795.147 174.103 796.563 174.439C794.187 175.303 791.163 175.735 787.347 175.951C787.635 176.335 787.899 176.983 788.019 177.487C792.771 177.151 796.419 176.431 799.107 175.063C802.155 175.855 804.843 176.743 806.859 177.559L807.939 176.119C806.091 175.423 803.643 174.655 800.907 173.935C802.227 172.927 803.211 171.679 803.931 170.119H808.683Z" fill="#333333"/>
<path d="M78.2021 0.126953L78.2022 216.035" stroke="#0B0C2C" stroke-width="3"/>
<path d="M821.79 0L821.79 213.608" stroke="#0B0C2C" stroke-width="3"/>
<path d="M121.902 46.3511V215.251" stroke="#0B0C2C" stroke-width="3"/>
<path d="M165.594 47.0449V215.945" stroke="#0B0C2C" stroke-width="3"/>
<path d="M209.287 47.0449V215.945" stroke="#0B0C2C" stroke-width="3"/>
<path d="M252.979 47.0449V215.945" stroke="#0B0C2C" stroke-width="3"/>
<path d="M296.672 44.9644V213.864" stroke="#0B0C2C" stroke-width="3"/>
<path d="M340.364 44.9644V213.864" stroke="#0B0C2C" stroke-width="3"/>
<path d="M384.057 47.0449V215.945" stroke="#0B0C2C" stroke-width="3"/>
<path d="M427.749 10.519L427.749 213.608" stroke="#0B0C2C" stroke-width="3"/>
<line x1="76.5894" y1="43.811" x2="823.407" y2="43.0019" stroke="#0B0C2C" stroke-width="3"/>
<path d="M471.441 10.519L471.441 213.608" stroke="#0B0C2C" stroke-width="3"/>
<path d="M515.134 44.9644V213.864" stroke="#0B0C2C" stroke-width="3"/>
<path d="M558.827 47.0449V215.945" stroke="#0B0C2C" stroke-width="3"/>
<path d="M602.519 47.0449V215.945" stroke="#0B0C2C" stroke-width="3"/>
<path d="M646.211 44.9644V213.864" stroke="#0B0C2C" stroke-width="3"/>
<path d="M689.904 47.0449V215.945" stroke="#0B0C2C" stroke-width="3"/>
<path d="M733.596 44.9644V213.864" stroke="#0B0C2C" stroke-width="3"/>
<path d="M777.289 44.9644V213.864" stroke="#0B0C2C" stroke-width="3"/>
<path d="M131.454 27.6985V20.8215H137.595V19.1655H124.669C125.175 17.7395 125.635 16.2905 126.003 14.7955H138.193V13.1395H126.417C126.716 11.8285 126.946 10.5175 127.176 9.22949L125.405 9.02249C125.198 10.3565 124.945 11.7595 124.646 13.1395H118.505V14.7955H124.255C123.013 19.6025 121.012 24.2255 117.631 27.3075C117.953 27.6295 118.505 28.2735 118.758 28.6415C121.426 26.1575 123.289 22.8915 124.623 19.2805V20.8215H129.752V27.6985H122.277V29.3545H138.607V27.6985H131.454ZM150.199 14.6345H157.95V15.6235H150.199V14.6345ZM150.199 12.8175H157.95V13.7835H150.199V12.8175ZM150.199 11.0005H157.95V11.9435H150.199V11.0005ZM148.405 18.4525H151.395C150.981 19.5795 149.9 20.1085 147.508 20.4305C147.761 20.6605 148.106 21.1205 148.244 21.4195C150.981 20.9135 152.2 20.0855 152.706 18.4525H154.638V19.3035C154.638 20.4765 154.96 20.7295 156.317 20.7295H158.249C159.146 20.7295 159.514 20.4075 159.629 19.2805C159.284 19.1885 158.801 19.0505 158.548 18.8665C158.502 19.6255 158.41 19.7175 158.042 19.7175H156.478C156.018 19.7175 155.949 19.6715 155.949 19.3035V18.4525H159.813V19.7865H161.354V17.4405H154.684V16.4975H159.606V10.1265H154.431C154.615 9.85049 154.822 9.52849 155.029 9.20649L153.258 8.95349C153.166 9.27549 152.982 9.71249 152.821 10.1265H148.612V16.4975H153.097V17.4405H146.91V19.7865H148.405V18.4525ZM157.513 24.5935C157.306 25.5365 157.076 25.9965 156.823 26.2035C156.639 26.3415 156.455 26.3645 156.087 26.3645C155.696 26.3645 154.684 26.3415 153.649 26.2265C153.833 26.5255 153.948 26.9855 153.971 27.2845C155.075 27.3765 156.11 27.3995 156.593 27.3765C157.168 27.3535 157.559 27.2845 157.927 26.9855C158.433 26.5945 158.755 25.8125 159.077 24.1335C159.146 23.9495 159.169 23.5585 159.169 23.5585H152.683C152.775 23.2825 152.867 22.9835 152.936 22.6845H161.538V21.6265H154.684V20.2235H153.12V21.6265H146.818V22.6845H151.441C150.981 24.3865 149.831 25.4675 146.933 26.1115C147.232 26.3645 147.6 26.9165 147.761 27.2615C150.038 26.6865 151.395 25.8355 152.177 24.5935H157.513ZM146.611 11.9895C145.898 11.1155 144.311 9.98849 142.977 9.29849L141.85 10.3335C143.184 11.0695 144.725 12.2425 145.415 13.1165L146.611 11.9895ZM145.967 16.5205C145.185 15.6695 143.529 14.5655 142.149 13.9215L141.068 14.9795C142.448 15.7155 144.058 16.8655 144.817 17.7165L145.967 16.5205ZM145.438 19.6255H140.953V21.2125H143.828V25.5825C142.793 26.5255 141.689 27.4915 140.723 28.1815L141.62 29.8145C142.724 28.8255 143.759 27.8595 144.748 26.8705C146.22 28.6645 148.336 29.4695 151.372 29.5845C153.948 29.6765 158.847 29.6305 161.4 29.5385C161.492 29.0325 161.745 28.2735 161.975 27.8825C159.215 28.0665 153.902 28.1125 151.349 28.0205C148.635 27.9055 146.565 27.1465 145.438 25.4445V19.6255ZM171.658 21.1665C171.267 20.5455 169.565 17.9925 168.921 17.1415V15.5545H171.543V13.9675H168.921V8.99949H167.357V13.9675H164.137V15.5545H167.173C166.506 18.6825 165.103 22.2705 163.677 24.1795C163.953 24.5705 164.367 25.2145 164.551 25.6515C165.609 24.1565 166.598 21.7415 167.357 19.2345V29.9755H168.921V19.1655C169.588 20.2925 170.393 21.6955 170.715 22.4315L171.658 21.1665ZM178.811 24.9155V23.2365H182.054V24.9155H178.811ZM174.211 23.2365H177.247V24.9155H174.211V23.2365ZM177.247 20.4305V22.0175H174.211V20.4305H177.247ZM182.054 20.4305V22.0175H178.811V20.4305H182.054ZM176.235 14.9335H179.938V16.4745H176.235V14.9335ZM176.235 12.1735H179.938V13.6685H176.235V12.1735ZM185.113 24.9155H183.641V19.1425H178.811V17.7855H184.86V16.4745H181.548V14.9335H184.055V13.6685H181.548V12.1735H184.4V10.8855H181.548V8.99949H179.938V10.8855H176.235V8.99949H174.671V10.8855H172.026V12.1735H174.671V13.6685H172.486V14.9335H174.671V16.4745H171.497V17.7855H177.247V19.1425H172.647V24.9155H171.083V26.2495H172.647V29.9295H174.211V26.2495H182.054V28.1815C182.054 28.4575 181.962 28.5495 181.686 28.5725C181.364 28.5725 180.375 28.5955 179.271 28.5495C179.455 28.9405 179.685 29.5385 179.754 29.9295C181.272 29.9295 182.261 29.9295 182.859 29.6995C183.48 29.4465 183.641 29.0095 183.641 28.2045V26.2495H185.113V24.9155ZM204.686 27.2155H201.236V16.6355H204.686V27.2155ZM189.989 16.6355H193.255V27.2155H189.989V16.6355ZM199.672 19.1655H194.819V16.6355H199.672V19.1655ZM194.819 24.5475H199.672V27.2155H194.819V24.5475ZM199.672 23.1445H194.819V20.5685H199.672V23.1445ZM207.515 12.1735V10.5405H187.298V12.1735H196.107C195.923 13.1165 195.693 14.1745 195.44 15.0485H188.333V30.0215H189.989V28.8025H204.686V30.0215H206.411V15.0485H197.188C197.487 14.1745 197.809 13.1395 198.085 12.1735H207.515ZM214.254 21.7185V19.9705H219.452V21.7185H214.254ZM214.254 17.0955H219.452V18.8205H214.254V17.0955ZM226.605 17.0955V18.8205H221.131V17.0955H226.605ZM226.605 21.7185H221.131V19.9705H226.605V21.7185ZM221.131 27.8825V25.9045H229.181V24.5245H221.131V22.9375H228.33V15.8535H221.131V14.4735H230.492V13.0705H221.131V11.2995C223.822 11.0925 226.329 10.8395 228.284 10.4715L227.364 9.13749C223.753 9.80449 217.313 10.2185 212 10.3565C212.161 10.7245 212.345 11.2995 212.368 11.7135C214.622 11.6675 217.06 11.5755 219.452 11.4145V13.0705H210.275V14.4735H219.452V15.8535H212.575V22.9375H219.452V24.5245H211.885V25.9045H219.452V27.8825H210.16V29.2855H230.63V27.8825H221.131ZM247.328 22.9145C246.615 24.2255 245.603 25.2605 244.269 26.0655C242.544 25.6515 240.727 25.2605 238.91 24.9155C239.37 24.2945 239.853 23.6045 240.336 22.9145H247.328ZM236.288 14.8645H239.761V17.9695H236.288V14.8645ZM241.394 11.5295H245.097V13.4615H241.394V11.5295ZM250.548 14.8645V17.9695H246.73V14.8645H250.548ZM241.394 17.9695V14.8645H245.097V17.9695H241.394ZM253.768 22.9145V21.4885H241.302C241.762 20.8215 242.199 20.1545 242.59 19.5335L241.969 19.3725H252.227V13.4615H246.73V11.5295H253.193V10.0115H233.551V11.5295H239.761V13.4615H234.678V19.3725H240.727C240.313 20.0395 239.83 20.7525 239.347 21.4885H232.999V22.9145H238.358C237.484 24.1335 236.633 25.3295 235.92 26.2265L237.53 26.7785L238.013 26.1575C239.416 26.4335 240.796 26.7325 242.153 27.0545C239.876 27.8825 236.978 28.2965 233.321 28.5035C233.597 28.8715 233.85 29.4925 233.965 29.9755C238.519 29.6535 242.015 28.9635 244.591 27.6525C247.512 28.4115 250.088 29.2625 252.02 30.0445L253.055 28.6645C251.284 27.9975 248.938 27.2615 246.316 26.5715C247.581 25.6055 248.524 24.4095 249.214 22.9145H253.768ZM256.919 19.6945C257.517 18.0155 257.954 15.4165 258.069 13.5305L256.781 13.3465C256.62 15.2095 256.206 17.7165 255.585 19.2345L256.919 19.6945ZM258.897 29.9985H260.599V8.99949H258.897V29.9985ZM260.76 13.2315C261.404 14.4965 262.094 16.1525 262.347 17.1415L263.635 16.5205C263.359 15.5545 262.646 13.9215 261.956 12.6795L260.76 13.2315ZM270.857 27.5835V21.8335H275.549V20.2465H270.857V15.4855H276.055V13.8525H270.857V9.09149H269.155V13.8525H266.28C266.602 12.7255 266.878 11.5295 267.108 10.3335L265.452 10.0575C264.923 13.1855 264.003 16.2675 262.669 18.2685C263.083 18.4525 263.842 18.8205 264.187 19.0505C264.808 18.0615 265.337 16.8655 265.797 15.4855H269.155V20.2465H264.279V21.8335H269.155V27.5835H262.577V29.2165H276.607V27.5835H270.857ZM299.469 17.3255V15.5775H289.97C290.292 13.1625 290.315 10.8855 290.338 9.04549H288.498C288.475 10.8625 288.498 13.1625 288.153 15.5775H279.39V17.3255H287.877C286.934 21.6725 284.634 26.0885 278.93 28.5725C279.413 28.9175 279.965 29.5155 280.218 29.9755C285.807 27.4225 288.291 23.0065 289.395 18.5905C291.212 23.8115 294.133 27.8825 298.549 29.9755C298.848 29.4695 299.423 28.7565 299.837 28.3655C295.398 26.5485 292.408 22.3855 290.798 17.3255H299.469ZM306.07 17.4865C306.093 16.4515 306.139 15.3935 306.139 14.3355H311.705V12.7485H307.703V9.04549H306.024V12.7485H301.976V14.3355H304.46C304.391 20.2005 304.138 25.7895 301.654 28.8715C302.068 29.1705 302.666 29.7225 302.919 30.0905C304.989 27.4915 305.702 23.5355 305.978 19.0505H308.922C308.784 25.3985 308.623 27.6525 308.232 28.1815C308.048 28.4345 307.864 28.5035 307.519 28.4805C307.174 28.4805 306.3 28.4805 305.357 28.4115C305.633 28.8255 305.794 29.4925 305.817 29.9525C306.783 29.9985 307.749 29.9985 308.301 29.9525C308.899 29.8835 309.313 29.7225 309.658 29.2165C310.256 28.4345 310.417 25.8585 310.578 18.2915C310.601 18.0385 310.601 17.4865 310.601 17.4865H306.07ZM312.51 25.0765C315.293 26.3645 318.651 28.4575 320.238 29.9985L321.342 28.5265C319.686 26.9855 316.305 24.9845 313.545 23.7655L312.51 25.0765ZM319.732 21.2355C318.881 20.1775 317.018 18.7515 315.454 17.8085L314.35 18.8895C315.914 19.8785 317.731 21.3735 318.559 22.4315L319.732 21.2355ZM315.891 9.02249C315.04 12.1275 313.016 15.5775 310.716 17.3715C311.038 17.7855 311.429 18.4755 311.613 18.9355C313.936 17.0265 315.891 13.7605 316.834 10.9775C317.915 13.8755 319.916 17.0265 322.216 18.8895C322.446 18.3835 322.814 17.6935 323.113 17.2565C320.928 15.6695 318.812 12.3805 317.616 9.02249H315.891ZM341.95 21.0285V27.1005H331.761V21.0285H341.95ZM345.377 14.9335V13.2775H334.038C334.475 11.9665 334.82 10.6555 335.142 9.32149L333.371 8.99949C333.072 10.4255 332.681 11.8515 332.221 13.2775H325.436V14.9335H331.6C330.151 18.6135 327.943 21.9485 324.7 24.1565C325.045 24.5015 325.574 25.1225 325.827 25.5135C327.483 24.3175 328.886 22.8685 330.082 21.2815V30.0445H331.761V28.7335H341.95V29.9295H343.698V19.3955H331.324C332.152 17.9925 332.842 16.4975 333.44 14.9335H345.377ZM357.199 14.6345H364.95V15.6235H357.199V14.6345ZM357.199 12.8175H364.95V13.7835H357.199V12.8175ZM357.199 11.0005H364.95V11.9435H357.199V11.0005ZM355.405 18.4525H358.395C357.981 19.5795 356.9 20.1085 354.508 20.4305C354.761 20.6605 355.106 21.1205 355.244 21.4195C357.981 20.9135 359.2 20.0855 359.706 18.4525H361.638V19.3035C361.638 20.4765 361.96 20.7295 363.317 20.7295H365.249C366.146 20.7295 366.514 20.4075 366.629 19.2805C366.284 19.1885 365.801 19.0505 365.548 18.8665C365.502 19.6255 365.41 19.7175 365.042 19.7175H363.478C363.018 19.7175 362.949 19.6715 362.949 19.3035V18.4525H366.813V19.7865H368.354V17.4405H361.684V16.4975H366.606V10.1265H361.431C361.615 9.85049 361.822 9.52849 362.029 9.20649L360.258 8.95349C360.166 9.27549 359.982 9.71249 359.821 10.1265H355.612V16.4975H360.097V17.4405H353.91V19.7865H355.405V18.4525ZM364.513 24.5935C364.306 25.5365 364.076 25.9965 363.823 26.2035C363.639 26.3415 363.455 26.3645 363.087 26.3645C362.696 26.3645 361.684 26.3415 360.649 26.2265C360.833 26.5255 360.948 26.9855 360.971 27.2845C362.075 27.3765 363.11 27.3995 363.593 27.3765C364.168 27.3535 364.559 27.2845 364.927 26.9855C365.433 26.5945 365.755 25.8125 366.077 24.1335C366.146 23.9495 366.169 23.5585 366.169 23.5585H359.683C359.775 23.2825 359.867 22.9835 359.936 22.6845H368.538V21.6265H361.684V20.2235H360.12V21.6265H353.818V22.6845H358.441C357.981 24.3865 356.831 25.4675 353.933 26.1115C354.232 26.3645 354.6 26.9165 354.761 27.2615C357.038 26.6865 358.395 25.8355 359.177 24.5935H364.513ZM353.611 11.9895C352.898 11.1155 351.311 9.98849 349.977 9.29849L348.85 10.3335C350.184 11.0695 351.725 12.2425 352.415 13.1165L353.611 11.9895ZM352.967 16.5205C352.185 15.6695 350.529 14.5655 349.149 13.9215L348.068 14.9795C349.448 15.7155 351.058 16.8655 351.817 17.7165L352.967 16.5205ZM352.438 19.6255H347.953V21.2125H350.828V25.5825C349.793 26.5255 348.689 27.4915 347.723 28.1815L348.62 29.8145C349.724 28.8255 350.759 27.8595 351.748 26.8705C353.22 28.6645 355.336 29.4695 358.372 29.5845C360.948 29.6765 365.847 29.6305 368.4 29.5385C368.492 29.0325 368.745 28.2735 368.975 27.8825C366.215 28.0665 360.902 28.1125 358.349 28.0205C355.635 27.9055 353.565 27.1465 352.438 25.4445V19.6255Z" fill="#333333"/>
<path d="M536.959 21.0285V27.1005H526.77V21.0285H536.959ZM540.386 14.9335V13.2775H529.047C529.484 11.9665 529.829 10.6555 530.151 9.32149L528.38 8.99949C528.081 10.4255 527.69 11.8515 527.23 13.2775H520.445V14.9335H526.609C525.16 18.6135 522.952 21.9485 519.709 24.1565C520.054 24.5015 520.583 25.1225 520.836 25.5135C522.492 24.3175 523.895 22.8685 525.091 21.2815V30.0445H526.77V28.7335H536.959V29.9295H538.707V19.3955H526.333C527.161 17.9925 527.851 16.4975 528.449 14.9335H540.386ZM552.208 14.6345H559.959V15.6235H552.208V14.6345ZM552.208 12.8175H559.959V13.7835H552.208V12.8175ZM552.208 11.0005H559.959V11.9435H552.208V11.0005ZM550.414 18.4525H553.404C552.99 19.5795 551.909 20.1085 549.517 20.4305C549.77 20.6605 550.115 21.1205 550.253 21.4195C552.99 20.9135 554.209 20.0855 554.715 18.4525H556.647V19.3035C556.647 20.4765 556.969 20.7295 558.326 20.7295H560.258C561.155 20.7295 561.523 20.4075 561.638 19.2805C561.293 19.1885 560.81 19.0505 560.557 18.8665C560.511 19.6255 560.419 19.7175 560.051 19.7175H558.487C558.027 19.7175 557.958 19.6715 557.958 19.3035V18.4525H561.822V19.7865H563.363V17.4405H556.693V16.4975H561.615V10.1265H556.44C556.624 9.85049 556.831 9.52849 557.038 9.20649L555.267 8.95349C555.175 9.27549 554.991 9.71249 554.83 10.1265H550.621V16.4975H555.106V17.4405H548.919V19.7865H550.414V18.4525ZM559.522 24.5935C559.315 25.5365 559.085 25.9965 558.832 26.2035C558.648 26.3415 558.464 26.3645 558.096 26.3645C557.705 26.3645 556.693 26.3415 555.658 26.2265C555.842 26.5255 555.957 26.9855 555.98 27.2845C557.084 27.3765 558.119 27.3995 558.602 27.3765C559.177 27.3535 559.568 27.2845 559.936 26.9855C560.442 26.5945 560.764 25.8125 561.086 24.1335C561.155 23.9495 561.178 23.5585 561.178 23.5585H554.692C554.784 23.2825 554.876 22.9835 554.945 22.6845H563.547V21.6265H556.693V20.2235H555.129V21.6265H548.827V22.6845H553.45C552.99 24.3865 551.84 25.4675 548.942 26.1115C549.241 26.3645 549.609 26.9165 549.77 27.2615C552.047 26.6865 553.404 25.8355 554.186 24.5935H559.522ZM548.62 11.9895C547.907 11.1155 546.32 9.98849 544.986 9.29849L543.859 10.3335C545.193 11.0695 546.734 12.2425 547.424 13.1165L548.62 11.9895ZM547.976 16.5205C547.194 15.6695 545.538 14.5655 544.158 13.9215L543.077 14.9795C544.457 15.7155 546.067 16.8655 546.826 17.7165L547.976 16.5205ZM547.447 19.6255H542.962V21.2125H545.837V25.5825C544.802 26.5255 543.698 27.4915 542.732 28.1815L543.629 29.8145C544.733 28.8255 545.768 27.8595 546.757 26.8705C548.229 28.6645 550.345 29.4695 553.381 29.5845C555.957 29.6765 560.856 29.6305 563.409 29.5385C563.501 29.0325 563.754 28.2735 563.984 27.8825C561.224 28.0665 555.911 28.1125 553.358 28.0205C550.644 27.9055 548.574 27.1465 547.447 25.4445V19.6255ZM573.667 21.1665C573.276 20.5455 571.574 17.9925 570.93 17.1415V15.5545H573.552V13.9675H570.93V8.99949H569.366V13.9675H566.146V15.5545H569.182C568.515 18.6825 567.112 22.2705 565.686 24.1795C565.962 24.5705 566.376 25.2145 566.56 25.6515C567.618 24.1565 568.607 21.7415 569.366 19.2345V29.9755H570.93V19.1655C571.597 20.2925 572.402 21.6955 572.724 22.4315L573.667 21.1665ZM580.82 24.9155V23.2365H584.063V24.9155H580.82ZM576.22 23.2365H579.256V24.9155H576.22V23.2365ZM579.256 20.4305V22.0175H576.22V20.4305H579.256ZM584.063 20.4305V22.0175H580.82V20.4305H584.063ZM578.244 14.9335H581.947V16.4745H578.244V14.9335ZM578.244 12.1735H581.947V13.6685H578.244V12.1735ZM587.122 24.9155H585.65V19.1425H580.82V17.7855H586.869V16.4745H583.557V14.9335H586.064V13.6685H583.557V12.1735H586.409V10.8855H583.557V8.99949H581.947V10.8855H578.244V8.99949H576.68V10.8855H574.035V12.1735H576.68V13.6685H574.495V14.9335H576.68V16.4745H573.506V17.7855H579.256V19.1425H574.656V24.9155H573.092V26.2495H574.656V29.9295H576.22V26.2495H584.063V28.1815C584.063 28.4575 583.971 28.5495 583.695 28.5725C583.373 28.5725 582.384 28.5955 581.28 28.5495C581.464 28.9405 581.694 29.5385 581.763 29.9295C583.281 29.9295 584.27 29.9295 584.868 29.6995C585.489 29.4465 585.65 29.0095 585.65 28.2045V26.2495H587.122V24.9155ZM606.695 27.2155H603.245V16.6355H606.695V27.2155ZM591.998 16.6355H595.264V27.2155H591.998V16.6355ZM601.681 19.1655H596.828V16.6355H601.681V19.1655ZM596.828 24.5475H601.681V27.2155H596.828V24.5475ZM601.681 23.1445H596.828V20.5685H601.681V23.1445ZM609.524 12.1735V10.5405H589.307V12.1735H598.116C597.932 13.1165 597.702 14.1745 597.449 15.0485H590.342V30.0215H591.998V28.8025H606.695V30.0215H608.42V15.0485H599.197C599.496 14.1745 599.818 13.1395 600.094 12.1735H609.524ZM616.263 21.7185V19.9705H621.461V21.7185H616.263ZM616.263 17.0955H621.461V18.8205H616.263V17.0955ZM628.614 17.0955V18.8205H623.14V17.0955H628.614ZM628.614 21.7185H623.14V19.9705H628.614V21.7185ZM623.14 27.8825V25.9045H631.19V24.5245H623.14V22.9375H630.339V15.8535H623.14V14.4735H632.501V13.0705H623.14V11.2995C625.831 11.0925 628.338 10.8395 630.293 10.4715L629.373 9.13749C625.762 9.80449 619.322 10.2185 614.009 10.3565C614.17 10.7245 614.354 11.2995 614.377 11.7135C616.631 11.6675 619.069 11.5755 621.461 11.4145V13.0705H612.284V14.4735H621.461V15.8535H614.584V22.9375H621.461V24.5245H613.894V25.9045H621.461V27.8825H612.169V29.2855H632.639V27.8825H623.14ZM649.337 22.9145C648.624 24.2255 647.612 25.2605 646.278 26.0655C644.553 25.6515 642.736 25.2605 640.919 24.9155C641.379 24.2945 641.862 23.6045 642.345 22.9145H649.337ZM638.297 14.8645H641.77V17.9695H638.297V14.8645ZM643.403 11.5295H647.106V13.4615H643.403V11.5295ZM652.557 14.8645V17.9695H648.739V14.8645H652.557ZM643.403 17.9695V14.8645H647.106V17.9695H643.403ZM655.777 22.9145V21.4885H643.311C643.771 20.8215 644.208 20.1545 644.599 19.5335L643.978 19.3725H654.236V13.4615H648.739V11.5295H655.202V10.0115H635.56V11.5295H641.77V13.4615H636.687V19.3725H642.736C642.322 20.0395 641.839 20.7525 641.356 21.4885H635.008V22.9145H640.367C639.493 24.1335 638.642 25.3295 637.929 26.2265L639.539 26.7785L640.022 26.1575C641.425 26.4335 642.805 26.7325 644.162 27.0545C641.885 27.8825 638.987 28.2965 635.33 28.5035C635.606 28.8715 635.859 29.4925 635.974 29.9755C640.528 29.6535 644.024 28.9635 646.6 27.6525C649.521 28.4115 652.097 29.2625 654.029 30.0445L655.064 28.6645C653.293 27.9975 650.947 27.2615 648.325 26.5715C649.59 25.6055 650.533 24.4095 651.223 22.9145H655.777ZM658.928 19.6945C659.526 18.0155 659.963 15.4165 660.078 13.5305L658.79 13.3465C658.629 15.2095 658.215 17.7165 657.594 19.2345L658.928 19.6945ZM660.906 29.9985H662.608V8.99949H660.906V29.9985ZM662.769 13.2315C663.413 14.4965 664.103 16.1525 664.356 17.1415L665.644 16.5205C665.368 15.5545 664.655 13.9215 663.965 12.6795L662.769 13.2315ZM672.866 27.5835V21.8335H677.558V20.2465H672.866V15.4855H678.064V13.8525H672.866V9.09149H671.164V13.8525H668.289C668.611 12.7255 668.887 11.5295 669.117 10.3335L667.461 10.0575C666.932 13.1855 666.012 16.2675 664.678 18.2685C665.092 18.4525 665.851 18.8205 666.196 19.0505C666.817 18.0615 667.346 16.8655 667.806 15.4855H671.164V20.2465H666.288V21.8335H671.164V27.5835H664.586V29.2165H678.616V27.5835H672.866ZM701.478 17.3255V15.5775H691.979C692.301 13.1625 692.324 10.8855 692.347 9.04549H690.507C690.484 10.8625 690.507 13.1625 690.162 15.5775H681.399V17.3255H689.886C688.943 21.6725 686.643 26.0885 680.939 28.5725C681.422 28.9175 681.974 29.5155 682.227 29.9755C687.816 27.4225 690.3 23.0065 691.404 18.5905C693.221 23.8115 696.142 27.8825 700.558 29.9755C700.857 29.4695 701.432 28.7565 701.846 28.3655C697.407 26.5485 694.417 22.3855 692.807 17.3255H701.478ZM708.079 17.4865C708.102 16.4515 708.148 15.3935 708.148 14.3355H713.714V12.7485H709.712V9.04549H708.033V12.7485H703.985V14.3355H706.469C706.4 20.2005 706.147 25.7895 703.663 28.8715C704.077 29.1705 704.675 29.7225 704.928 30.0905C706.998 27.4915 707.711 23.5355 707.987 19.0505H710.931C710.793 25.3985 710.632 27.6525 710.241 28.1815C710.057 28.4345 709.873 28.5035 709.528 28.4805C709.183 28.4805 708.309 28.4805 707.366 28.4115C707.642 28.8255 707.803 29.4925 707.826 29.9525C708.792 29.9985 709.758 29.9985 710.31 29.9525C710.908 29.8835 711.322 29.7225 711.667 29.2165C712.265 28.4345 712.426 25.8585 712.587 18.2915C712.61 18.0385 712.61 17.4865 712.61 17.4865H708.079ZM714.519 25.0765C717.302 26.3645 720.66 28.4575 722.247 29.9985L723.351 28.5265C721.695 26.9855 718.314 24.9845 715.554 23.7655L714.519 25.0765ZM721.741 21.2355C720.89 20.1775 719.027 18.7515 717.463 17.8085L716.359 18.8895C717.923 19.8785 719.74 21.3735 720.568 22.4315L721.741 21.2355ZM717.9 9.02249C717.049 12.1275 715.025 15.5775 712.725 17.3715C713.047 17.7855 713.438 18.4755 713.622 18.9355C715.945 17.0265 717.9 13.7605 718.843 10.9775C719.924 13.8755 721.925 17.0265 724.225 18.8895C724.455 18.3835 724.823 17.6935 725.122 17.2565C722.937 15.6695 720.821 12.3805 719.625 9.02249H717.9ZM740.463 27.6985V20.8215H746.604V19.1655H733.678C734.184 17.7395 734.644 16.2905 735.012 14.7955H747.202V13.1395H735.426C735.725 11.8285 735.955 10.5175 736.185 9.22949L734.414 9.02249C734.207 10.3565 733.954 11.7595 733.655 13.1395H727.514V14.7955H733.264C732.022 19.6025 730.021 24.2255 726.64 27.3075C726.962 27.6295 727.514 28.2735 727.767 28.6415C730.435 26.1575 732.298 22.8915 733.632 19.2805V20.8215H738.761V27.6985H731.286V29.3545H747.616V27.6985H740.463ZM759.208 14.6345H766.959V15.6235H759.208V14.6345ZM759.208 12.8175H766.959V13.7835H759.208V12.8175ZM759.208 11.0005H766.959V11.9435H759.208V11.0005ZM757.414 18.4525H760.404C759.99 19.5795 758.909 20.1085 756.517 20.4305C756.77 20.6605 757.115 21.1205 757.253 21.4195C759.99 20.9135 761.209 20.0855 761.715 18.4525H763.647V19.3035C763.647 20.4765 763.969 20.7295 765.326 20.7295H767.258C768.155 20.7295 768.523 20.4075 768.638 19.2805C768.293 19.1885 767.81 19.0505 767.557 18.8665C767.511 19.6255 767.419 19.7175 767.051 19.7175H765.487C765.027 19.7175 764.958 19.6715 764.958 19.3035V18.4525H768.822V19.7865H770.363V17.4405H763.693V16.4975H768.615V10.1265H763.44C763.624 9.85049 763.831 9.52849 764.038 9.20649L762.267 8.95349C762.175 9.27549 761.991 9.71249 761.83 10.1265H757.621V16.4975H762.106V17.4405H755.919V19.7865H757.414V18.4525ZM766.522 24.5935C766.315 25.5365 766.085 25.9965 765.832 26.2035C765.648 26.3415 765.464 26.3645 765.096 26.3645C764.705 26.3645 763.693 26.3415 762.658 26.2265C762.842 26.5255 762.957 26.9855 762.98 27.2845C764.084 27.3765 765.119 27.3995 765.602 27.3765C766.177 27.3535 766.568 27.2845 766.936 26.9855C767.442 26.5945 767.764 25.8125 768.086 24.1335C768.155 23.9495 768.178 23.5585 768.178 23.5585H761.692C761.784 23.2825 761.876 22.9835 761.945 22.6845H770.547V21.6265H763.693V20.2235H762.129V21.6265H755.827V22.6845H760.45C759.99 24.3865 758.84 25.4675 755.942 26.1115C756.241 26.3645 756.609 26.9165 756.77 27.2615C759.047 26.6865 760.404 25.8355 761.186 24.5935H766.522ZM755.62 11.9895C754.907 11.1155 753.32 9.98849 751.986 9.29849L750.859 10.3335C752.193 11.0695 753.734 12.2425 754.424 13.1165L755.62 11.9895ZM754.976 16.5205C754.194 15.6695 752.538 14.5655 751.158 13.9215L750.077 14.9795C751.457 15.7155 753.067 16.8655 753.826 17.7165L754.976 16.5205ZM754.447 19.6255H749.962V21.2125H752.837V25.5825C751.802 26.5255 750.698 27.4915 749.732 28.1815L750.629 29.8145C751.733 28.8255 752.768 27.8595 753.757 26.8705C755.229 28.6645 757.345 29.4695 760.381 29.5845C762.957 29.6765 767.856 29.6305 770.409 29.5385C770.501 29.0325 770.754 28.2735 770.984 27.8825C768.224 28.0665 762.911 28.1125 760.358 28.0205C757.644 27.9055 755.574 27.1465 754.447 25.4445V19.6255Z" fill="#333333"/>
<path d="M33.632 124.973H30.032V113.933H33.632V124.973ZM18.296 113.933H21.704V124.973H18.296V113.933ZM28.4 116.573H23.336V113.933H28.4V116.573ZM23.336 122.189H28.4V124.973H23.336V122.189ZM28.4 120.725H23.336V118.037H28.4V120.725ZM36.584 109.277V107.573H15.488V109.277H24.68C24.488 110.261 24.248 111.365 23.984 112.277H16.568V127.901H18.296V126.629H33.632V127.901H35.432V112.277H25.808C26.12 111.365 26.456 110.285 26.744 109.277H36.584ZM53 116.597V121.277H46.976V116.597H53ZM54.656 122.885V114.989H45.344V124.589H46.976V122.885H54.656ZM59.672 110.093H48.968C49.568 108.941 50.192 107.573 50.72 106.301L48.536 105.917C48.224 107.141 47.6 108.797 47 110.093H40.448V127.877H42.2V111.821H57.896V125.501C57.896 125.957 57.752 126.077 57.32 126.101C56.816 126.125 55.16 126.125 53.432 126.053C53.696 126.533 53.984 127.373 54.08 127.877C56.24 127.877 57.704 127.853 58.568 127.565C59.408 127.277 59.672 126.677 59.672 125.501V110.093Z" fill="#333333"/>
<path d="M857.632 121.92H854.032V110.88H857.632V121.92ZM842.296 110.88H845.704V121.92H842.296V110.88ZM852.4 113.52H847.336V110.88H852.4V113.52ZM847.336 119.136H852.4V121.92H847.336V119.136ZM852.4 117.672H847.336V114.984H852.4V117.672ZM860.584 106.224V104.52H839.488V106.224H848.68C848.488 107.208 848.248 108.312 847.984 109.224H840.568V124.848H842.296V123.576H857.632V124.848H859.432V109.224H849.808C850.12 108.312 850.456 107.232 850.744 106.224H860.584ZM877 113.544V118.224H870.976V113.544H877ZM878.656 119.832V111.936H869.344V121.536H870.976V119.832H878.656ZM883.672 107.04H872.968C873.568 105.888 874.192 104.52 874.72 103.248L872.536 102.864C872.224 104.088 871.6 105.744 871 107.04H864.448V124.824H866.2V108.768H881.896V122.448C881.896 122.904 881.752 123.024 881.32 123.048C880.816 123.072 879.16 123.072 877.432 123C877.696 123.48 877.984 124.32 878.08 124.824C880.24 124.824 881.704 124.8 882.568 124.512C883.408 124.224 883.672 123.624 883.672 122.448V107.04Z" fill="#333333"/>
</g>
<defs>
<clipPath id="clip0_113_38">
<rect width="900" height="216.04" fill="white"/>
</clipPath>
</defs>
</svg>
