<svg width="1148" height="600" viewBox="0 0 1148 600" fill="none" xmlns="http://www.w3.org/2000/svg">
<g clip-path="url(#clip0_140_334)">
<rect width="1148" height="600" fill="#0B0C2C"/>
<path d="M0 0H1020V502H0V0Z" fill="#0B0C2C"/>
<path d="M295.673 137.889C367.479 129.639 415.792 172.323 416.454 244.598" stroke="white" stroke-width="16.6667" stroke-linecap="round" stroke-linejoin="round"/>
<path d="M298.487 183.387C341.57 178.438 370.558 204.049 370.956 247.413" stroke="white" stroke-width="16.6667" stroke-linecap="round" stroke-linejoin="round"/>
<path d="M305.286 227.848C316.562 226.553 324.149 233.256 324.253 244.606" stroke="white" stroke-width="16.6667" stroke-linecap="round" stroke-linejoin="round"/>
<path d="M339.049 324.248L224.378 229.964C224.378 229.964 219.348 226.273 215.325 225.267C211.301 224.26 209.091 224.075 204.595 224.26C200.025 224.447 195.877 225.602 192.86 227.28C189.842 228.957 183.807 234.997 183.807 234.997L-53.5844 524.223C-53.5844 524.223 -56.3947 528.174 -57.6082 532.947C-58.2659 535.534 -57.9755 538.125 -57.6082 541C-57.1492 544.592 -56.267 547.71 -53.5846 552.408C-50.9022 557.105 -47.2139 561.132 -47.2139 561.132L67.7931 655.751C67.7931 655.751 73.516 659.514 80.1991 660.784C83.3825 661.389 87.0431 660.579 89.9229 660.113C93.1153 659.596 96.1227 658.916 98.9758 657.093C103.201 654.394 106.688 650.383 106.688 650.383L344.079 361.827C344.079 361.827 346.14 359.696 347.432 355.117C348.076 352.833 348.773 349.519 348.773 346.728C348.773 343.482 347.764 335.991 346.426 333.643M339.049 324.248C339.049 324.248 343.5 327.416 346.426 333.643M339.049 324.248C339.049 324.248 343.807 329.044 346.426 333.643" stroke="#E2EEF4" stroke-width="20"/>
<path d="M224.378 214.949L339.049 309.232C339.049 309.232 343.5 312.401 346.426 318.627C347.764 320.976 348.773 328.467 348.773 331.713C348.773 334.504 348.076 337.817 347.432 340.101C346.14 344.681 344.079 346.812 344.079 346.812L106.688 635.367C106.688 635.367 103.201 639.378 98.9759 642.078C96.1227 643.901 93.1153 644.581 89.9229 645.098C87.0431 645.564 83.3826 646.374 80.1991 645.769C73.516 644.498 67.7931 640.736 67.7931 640.736L-47.2139 546.116C-47.2139 546.116 -50.9022 542.09 -53.5846 537.392C-56.267 532.695 -57.1492 529.576 -57.6082 525.984C-57.9755 523.109 -58.2659 520.518 -57.6082 517.932C-56.3947 513.159 -53.5844 509.208 -53.5844 509.208L183.807 219.981C183.807 219.981 189.842 213.942 192.86 212.264C195.877 210.587 200.025 209.432 204.595 209.245C209.091 209.06 211.301 209.245 215.325 210.251C219.348 211.258 224.378 214.949 224.378 214.949Z" fill="#3555F5"/>
<path d="M339.049 309.232L224.378 214.949C224.378 214.949 219.348 211.258 215.325 210.251C211.301 209.245 209.091 209.06 204.595 209.245C200.025 209.432 195.877 210.587 192.86 212.264C189.842 213.942 183.807 219.981 183.807 219.981L-53.5844 509.208C-53.5844 509.208 -56.3947 513.159 -57.6082 517.932C-58.2659 520.518 -57.9755 523.109 -57.6082 525.984C-57.1492 529.576 -56.267 532.695 -53.5846 537.392C-50.9022 542.09 -47.2139 546.116 -47.2139 546.116L67.7931 640.736C67.7931 640.736 73.516 644.498 80.1991 645.769C83.3826 646.374 87.0431 645.564 89.9229 645.098C93.1153 644.581 96.1227 643.901 98.9759 642.078C103.201 639.378 106.688 635.367 106.688 635.367L344.079 346.812C344.079 346.812 346.14 344.681 347.432 340.101C348.076 337.817 348.773 334.504 348.773 331.713C348.773 328.467 347.764 320.976 346.426 318.627M339.049 309.232C339.049 309.232 343.5 312.401 346.426 318.627M339.049 309.232C339.049 309.232 343.807 314.029 346.426 318.627" stroke="white" stroke-width="10"/>
<path d="M236.842 228.292C236.842 228.292 236.961 228.371 237.118 228.515L322.838 298.248C322.838 298.248 320.595 297.985 319.767 298.248C318.938 298.512 315.538 301.993 313.283 303.708C311.988 304.693 311.4 305.543 309.87 306.097C307.866 306.824 305.434 306.78 304.41 306.097C303.386 305.415 236.501 248.767 235.819 248.084C235.136 247.402 233.686 244.807 233.43 242.624C233.197 240.639 232.762 239.39 233.43 237.505C234.217 235.283 237.866 231.022 237.866 229.998C237.866 229.323 237.421 228.796 237.118 228.515L236.842 228.292Z" fill="white"/>
<path d="M236.842 228.292C236.842 228.292 237.866 228.974 237.866 229.998C237.866 231.022 234.217 235.283 233.43 237.505C232.762 239.39 233.197 240.639 233.43 242.624C233.686 244.807 235.136 247.402 235.819 248.084C236.501 248.767 303.386 305.415 304.41 306.097C305.434 306.78 307.866 306.824 309.87 306.097C311.4 305.543 311.988 304.693 313.283 303.708C315.538 301.993 318.938 298.512 319.767 298.248C320.595 297.985 322.838 298.248 322.838 298.248L236.842 228.292Z" stroke="white" stroke-width="3"/>
<path d="M268.094 258.367C266.611 257.127 264.404 257.324 263.164 258.807C261.924 260.289 262.121 262.497 263.603 263.737L268.094 258.367ZM282.372 279.434C283.855 280.675 286.062 280.478 287.302 278.995C288.543 277.512 288.346 275.305 286.863 274.065L282.372 279.434ZM263.603 263.737L282.372 279.434L286.863 274.065L268.094 258.367L263.603 263.737Z" fill="#C9C7C7"/>
<circle cx="292.125" cy="282.892" r="2.04752" fill="#C9C7C7"/>
<ellipse cx="162.108" cy="417.345" rx="79.5119" ry="79.1706" fill="#1382B5"/>
<ellipse cx="165.862" cy="402.672" rx="80.5356" ry="80.1944" fill="#82CDEF"/>
<g clip-path="url(#clip1_140_334)">
<path fill-rule="evenodd" clip-rule="evenodd" d="M114.777 408.732L98.3445 374.021L128.94 333.956L212.167 350.128L228.6 384.839L197.865 425.087L114.777 408.732Z" fill="#24AE5F"/>
<path fill-rule="evenodd" clip-rule="evenodd" d="M100.523 371.168L97.866 374.647L114.293 409.229L197.103 425.637L199.761 422.157L116.95 405.749L100.523 371.168ZM105.174 365.078L102.516 368.558L118.943 403.139L201.753 419.549L204.411 416.068L121.601 399.659L105.174 365.078ZM114.475 352.898L111.818 356.378L128.245 390.959L211.054 407.368L213.712 403.889L130.902 387.479L114.475 352.898ZM109.825 358.987L107.168 362.467L123.594 397.049L206.405 413.457L209.062 409.977L126.251 393.57L109.825 358.987ZM119.126 346.808L116.468 350.288L132.895 384.87L215.705 401.278L218.362 397.799L135.552 381.39L119.126 346.808ZM144.947 369.227L128.559 334.455L125.875 337.97L142.264 372.741L225.45 388.972L228.134 385.457L144.947 369.227V369.227ZM123.776 340.718L121.118 344.198L137.613 378.832L220.575 395.356L223.232 391.876L140.27 375.352L123.776 340.718Z" fill="#1E9450"/>
<path fill-rule="evenodd" clip-rule="evenodd" d="M132.328 445.93L115.969 411.399L142.075 377.214L224.736 393.51L241.463 428.459L215.628 462.29L132.328 445.93Z" fill="#24AE5F"/>
<path fill-rule="evenodd" clip-rule="evenodd" d="M118.525 408.058L115.867 411.537L132.361 446.17L215.32 462.692L217.978 459.212L135.018 442.69L118.525 408.058ZM123.175 401.968L120.518 405.448L137.011 440.08L219.971 456.602L222.628 453.122L139.669 436.599L123.175 401.968ZM132.477 389.788L129.819 393.268L146.312 427.9L229.272 444.422L231.93 440.942L148.97 424.42L132.477 389.788V389.788ZM127.826 395.877L125.169 399.357L141.661 433.991L224.621 450.513L227.278 447.033L144.32 430.509L127.826 395.877V395.877ZM137.127 383.698L134.469 387.178L150.963 421.81L233.922 438.332L236.58 434.853L153.62 418.33L137.127 383.698V383.698ZM158.578 411.838L142.084 377.207L139.426 380.687L155.92 415.319L238.879 431.842L241.537 428.362L158.578 411.838V411.838Z" fill="#1E9450"/>
<path opacity="0.1" d="M144.853 369.21L128.411 334.649L97.8153 374.714L114.332 409.316L144.853 369.21ZM158.486 411.821L142.044 377.26L115.948 411.431L132.465 446.033L158.486 411.821V411.821Z" fill="black"/>
<path fill-rule="evenodd" clip-rule="evenodd" d="M182.937 408.348L164.818 404.593L158.15 389.86L179.21 394.056C179.21 394.056 180.48 390.188 181.487 390.219C181.433 390.265 150.237 384.255 150.237 384.255L162.196 408.701L189.677 413.945C189.677 413.945 187.681 412.523 186.01 411.134C184.311 409.726 182.937 408.348 182.937 408.348V408.348ZM201.738 416.248L233.701 422.902L222.57 398.059L195.115 392.819C198.245 394.964 199.723 398.145 199.723 398.145L219.161 402.018L226.698 417.416L204.391 412.793L201.738 416.248Z" fill="#1E9450"/>
<path d="M191.135 407.865C191.905 408.492 192.783 408.973 193.725 409.285L191.274 403.96L190.855 403.784L190.297 403.585C189.547 403.302 188.793 402.994 188.034 402.656C187.274 402.318 186.548 401.915 185.854 401.446C185.161 400.978 184.529 400.432 183.959 399.812C183.365 399.157 182.878 398.413 182.516 397.608C182.117 396.742 181.942 396.006 181.991 395.402C182.041 394.798 182.252 394.32 182.626 393.966C182.999 393.613 183.512 393.376 184.161 393.257C184.877 393.135 185.606 393.118 186.327 393.204L185.424 391.242L187.032 391.51L187.935 393.472C188.801 393.695 189.647 393.989 190.465 394.351C191.295 394.717 192.087 395.164 192.829 395.685C193.586 396.222 194.284 396.839 194.908 397.526C195.562 398.248 196.119 399.053 196.563 399.92L192.694 399.276C192.338 398.563 191.834 397.933 191.216 397.429C190.561 396.881 189.925 396.556 189.307 396.453L191.383 400.964L192.121 401.229L192.926 401.527C194.425 402.091 195.655 402.684 196.612 403.304C197.568 403.927 198.345 404.539 198.941 405.14C199.536 405.742 199.99 406.32 200.305 406.873C200.618 407.428 200.874 407.918 201.069 408.342C201.241 408.716 201.358 409.171 201.419 409.707C201.481 410.243 201.378 410.74 201.111 411.196C200.844 411.654 200.371 412.022 199.696 412.302C199.019 412.582 198.019 412.651 196.696 412.511L197.692 414.677L196.085 414.409L195.088 412.243C192.991 411.768 191.132 410.918 189.511 409.691C187.889 408.465 186.527 406.834 185.423 404.798L189.264 405.437C189.679 406.387 190.322 407.221 191.135 407.865V407.865ZM196.254 409.505C196.558 409.454 196.803 409.349 196.992 409.192C197.182 409.03 197.307 408.804 197.341 408.556C197.386 408.289 197.315 407.952 197.126 407.544C196.832 406.895 196.364 406.34 195.773 405.942C195.175 405.537 194.278 405.108 193.081 404.658L195.333 409.551C195.641 409.573 195.95 409.557 196.254 409.505V409.505ZM186.857 396.163C186.632 396.187 186.42 396.279 186.249 396.427C186.171 396.5 186.108 396.588 186.064 396.685C186.021 396.783 185.997 396.889 185.995 396.996C185.979 397.237 186.054 397.536 186.219 397.893C186.478 398.454 186.867 398.919 187.388 399.288C187.91 399.657 188.651 400.007 189.609 400.339L187.696 396.186C187.419 396.134 187.136 396.127 186.857 396.163V396.163Z" fill="#1E9450"/>
<path fill-rule="evenodd" clip-rule="evenodd" d="M169.326 364.709L151.207 360.955L144.539 346.222L165.599 350.418C165.599 350.418 166.868 346.548 167.876 346.581C167.822 346.627 136.626 340.617 136.626 340.617L148.586 365.063L176.066 370.307C176.066 370.307 174.07 368.885 172.399 367.496C170.701 366.088 169.326 364.709 169.326 364.709V364.709ZM188.127 372.61L220.09 379.264L208.959 354.421L181.504 349.181C184.635 351.326 186.112 354.506 186.112 354.506L205.55 358.38L213.087 373.778L190.781 369.155L188.127 372.61V372.61Z" fill="#1E9450"/>
<path d="M177.524 364.227C178.294 364.854 179.172 365.335 180.115 365.647L177.662 360.321L177.243 360.145L176.685 359.946C175.922 359.658 175.167 359.348 174.421 359.017C173.662 358.679 172.936 358.276 172.242 357.807C171.549 357.339 170.918 356.794 170.347 356.173C169.753 355.518 169.266 354.774 168.904 353.968C168.505 353.102 168.33 352.367 168.379 351.763C168.429 351.159 168.64 350.681 169.014 350.327C169.388 349.974 169.899 349.738 170.548 349.619C171.264 349.497 171.993 349.48 172.714 349.566L171.811 347.605L173.419 347.872L174.322 349.834C175.188 350.057 176.034 350.352 176.852 350.714C177.682 351.079 178.474 351.526 179.216 352.047C179.973 352.584 180.671 353.201 181.295 353.888C181.949 354.61 182.506 355.415 182.95 356.282L179.081 355.638C178.725 354.925 178.221 354.295 177.603 353.791C176.948 353.243 176.312 352.918 175.694 352.816L177.77 357.326L178.509 357.589L179.313 357.888C180.813 358.451 182.043 359.045 183 359.665C183.957 360.287 184.733 360.9 185.329 361.501C185.924 362.103 186.378 362.681 186.692 363.235C187.005 363.79 187.261 364.28 187.456 364.704C187.628 365.078 187.745 365.533 187.806 366.069C187.868 366.605 187.766 367.102 187.498 367.558C187.231 368.016 186.758 368.384 186.083 368.664C185.406 368.944 184.406 369.013 183.083 368.873L184.079 371.039L182.472 370.772L181.475 368.605C179.378 368.13 177.519 367.28 175.898 366.053C174.276 364.827 172.914 363.196 171.81 361.16L175.651 361.799C176.078 362.763 176.703 363.572 177.524 364.227V364.227ZM182.644 365.866C182.947 365.815 183.192 365.711 183.38 365.553C183.57 365.391 183.695 365.165 183.729 364.917C183.774 364.65 183.702 364.313 183.515 363.903C183.221 363.254 182.753 362.7 182.162 362.301L179.469 361.019L181.721 365.912C182.033 365.934 182.34 365.919 182.644 365.866ZM173.246 352.525C173.021 352.549 172.809 352.641 172.638 352.788C172.56 352.861 172.497 352.95 172.453 353.047C172.41 353.145 172.386 353.251 172.384 353.358C172.37 353.599 172.443 353.897 172.608 354.254C172.867 354.816 173.256 355.281 173.779 355.65C174.3 356.019 175.042 356.369 175.999 356.702L174.087 352.548C173.809 352.496 173.525 352.488 173.246 352.525V352.525Z" fill="#1E9450"/>
</g>
<g clip-path="url(#clip2_140_334)">
<path d="M166.64 472.251C184.075 484.839 208.412 480.91 220.999 463.476C233.587 446.042 229.658 421.704 212.224 409.117C194.79 396.529 170.452 400.458 157.865 417.892C145.277 435.326 149.206 459.664 166.64 472.251Z" fill="#F4900C"/>
<path d="M169.322 468.537C186.756 481.125 211.093 477.196 223.681 459.762C236.268 442.328 232.339 417.99 214.905 405.403C197.471 392.815 173.134 396.744 160.546 414.178C147.959 431.612 151.888 455.95 169.322 468.537Z" fill="#FFCC4D"/>
<path d="M172.003 464.824C186.361 475.19 206.403 471.954 216.769 457.597C227.136 443.239 223.9 423.197 209.543 412.83C195.185 402.464 175.142 405.7 164.776 420.057C154.41 434.415 157.646 454.457 172.003 464.824Z" fill="#FFE8B6"/>
<path d="M173.344 462.967C187.701 473.333 207.744 470.097 218.11 455.74C228.476 441.382 225.241 421.34 210.883 410.974C196.526 400.608 176.483 403.843 166.117 418.201C155.751 432.558 158.986 452.601 173.344 462.967Z" fill="#FFAC33"/>
<path d="M184.647 414.223C185.378 413.211 186.663 413.524 186.663 413.524L206.253 417.215L216.06 434.748C216.06 434.748 216.914 435.709 216.049 436.907L215.19 438.097L183.782 415.421L184.647 414.223Z" fill="#FFE8B6"/>
<path d="M212.419 439.868C213.202 438.784 212.899 437.229 211.744 436.395L186.354 418.063C185.198 417.228 183.758 417.525 182.975 418.609C182.442 419.346 182.363 420.255 182.724 421.027L181.831 422.263L185.756 425.098L186.465 424.115L190.391 426.949L189.682 427.932L193.607 430.766L194.316 429.784L198.242 432.618L197.533 433.6L201.458 436.434L202.167 435.452L206.093 438.286L205.383 439.269L209.311 442.104L210.24 440.817C211.081 440.893 211.915 440.567 212.419 439.868ZM200.395 462.724C200.113 463.114 199.688 463.377 199.212 463.454C198.737 463.53 198.25 463.415 197.86 463.133L165.472 439.749C165.081 439.467 164.818 439.041 164.742 438.566C164.665 438.09 164.78 437.604 165.062 437.213C165.344 436.823 165.77 436.56 166.245 436.483C166.721 436.407 167.207 436.522 167.598 436.804L199.988 460.189C200.799 460.775 200.982 461.91 200.395 462.724V462.724Z" fill="#F4900C"/>
<path d="M214.253 439.395C214.065 439.656 213.781 439.831 213.463 439.882C213.146 439.933 212.822 439.857 212.561 439.668L183.116 418.409C182.877 418.213 182.722 417.933 182.682 417.627C182.642 417.321 182.721 417.01 182.902 416.76C183.083 416.509 183.352 416.337 183.656 416.279C183.959 416.22 184.274 416.279 184.535 416.445L213.976 437.709C214.105 437.802 214.214 437.919 214.298 438.054C214.382 438.188 214.438 438.338 214.464 438.495C214.489 438.652 214.484 438.812 214.448 438.966C214.412 439.121 214.345 439.267 214.253 439.395V439.395ZM186.93 421.403L208.524 436.993L206.933 439.196L185.34 423.605L186.93 421.403Z" fill="#F4900C"/>
<path d="M177.164 436.993C176.382 438.078 175.161 438.533 174.438 438.011L173.129 437.066C172.407 436.544 172.454 435.242 173.237 434.158L183.981 419.277C184.764 418.192 185.985 417.738 186.708 418.259L188.017 419.204C188.739 419.726 188.692 421.028 187.909 422.112L177.164 436.993ZM200.721 454.001C199.938 455.086 198.719 455.542 197.995 455.019L196.686 454.074C195.963 453.552 196.011 452.25 196.794 451.166L207.538 436.285C208.321 435.2 209.54 434.744 210.264 435.267L211.573 436.212C212.296 436.734 212.248 438.036 211.465 439.12L200.721 454.001ZM185.017 442.663C184.234 443.748 183.013 444.202 182.291 443.681L180.982 442.736C180.26 442.214 180.307 440.912 181.09 439.828L191.834 424.946C192.617 423.862 193.838 423.407 194.56 423.929L195.87 424.874C196.592 425.396 196.545 426.698 195.762 427.782L185.017 442.663ZM192.868 448.332C192.085 449.416 190.864 449.871 190.142 449.349L188.835 448.405C188.112 447.884 188.16 446.582 188.943 445.497L199.687 430.616C200.47 429.532 201.691 429.077 202.413 429.599L203.721 430.543C204.443 431.064 204.396 432.366 203.613 433.45L192.868 448.332Z" fill="#FFD983"/>
<path d="M200.996 455.691C200.213 456.775 198.7 457.02 197.616 456.237L172.096 437.812C171.576 437.436 171.226 436.869 171.124 436.235C171.021 435.601 171.175 434.952 171.551 434.432C171.927 433.911 172.494 433.561 173.128 433.459C173.761 433.357 174.41 433.51 174.931 433.886L200.45 452.311C201.532 453.093 201.779 454.607 200.996 455.691V455.691Z" fill="#FFCC4D"/>
<path d="M201.541 459.071C200.758 460.155 199.246 460.399 198.161 459.616L168.715 438.356C168.194 437.98 167.844 437.413 167.742 436.779C167.639 436.145 167.793 435.496 168.169 434.976C168.545 434.455 169.112 434.105 169.746 434.003C170.38 433.901 171.028 434.054 171.549 434.43L200.994 455.69C202.078 456.473 202.324 457.986 201.541 459.071V459.071Z" fill="#FFD983"/>
<path d="M201.458 461.251C201.176 461.642 200.751 461.904 200.275 461.981C199.8 462.058 199.313 461.943 198.923 461.661L166.535 438.276C166.341 438.137 166.177 437.96 166.052 437.757C165.927 437.554 165.843 437.329 165.805 437.093C165.767 436.858 165.776 436.617 165.831 436.385C165.886 436.153 165.986 435.934 166.125 435.741C166.265 435.547 166.441 435.383 166.644 435.258C166.847 435.133 167.073 435.049 167.308 435.011C167.544 434.973 167.785 434.981 168.017 435.036C168.249 435.091 168.468 435.192 168.661 435.331L201.051 458.717C201.862 459.303 202.046 460.438 201.458 461.251V461.251Z" fill="#FFD983"/>
<path d="M213.157 438.847C213.94 437.763 213.636 436.207 212.481 435.373L187.092 417.042C185.935 416.207 184.495 416.503 183.712 417.588C183.18 418.325 183.1 419.233 183.461 420.005L182.568 421.242L186.493 424.076L187.203 423.094L191.128 425.928L190.419 426.91L194.344 429.745L195.054 428.762L198.979 431.597L198.27 432.579L202.195 435.413L202.905 434.431L206.83 437.265L206.121 438.247L210.048 441.083L210.977 439.796C211.818 439.872 212.653 439.545 213.157 438.847Z" fill="#FFCC4D"/>
<path d="M183.833 415.35C184.564 414.338 185.85 414.651 185.85 414.651L205.439 418.342L215.246 435.875C215.246 435.875 216.1 436.836 215.235 438.034L214.845 438.575L183.438 415.898L183.833 415.35Z" fill="#FFD983"/>
<path d="M203.72 420.895C203.72 420.895 190.144 418.356 188.822 418.057C187.501 417.755 187.329 418.705 188.005 419.193L210.232 435.241C211.276 435.995 211.604 435.02 211.087 433.991C210.568 432.964 203.72 420.895 203.72 420.895Z" fill="#FFAC33"/>
<path d="M214.847 438.573C214.658 438.833 214.375 439.008 214.057 439.059C213.74 439.111 213.416 439.034 213.155 438.846L183.71 417.586C183.471 417.39 183.316 417.111 183.276 416.804C183.236 416.498 183.315 416.188 183.496 415.937C183.677 415.687 183.946 415.514 184.25 415.456C184.553 415.397 184.867 415.457 185.129 415.622L214.569 436.887C214.699 436.979 214.808 437.096 214.892 437.231C214.976 437.366 215.032 437.516 215.058 437.672C215.083 437.829 215.078 437.989 215.042 438.143C215.006 438.298 214.939 438.444 214.847 438.573V438.573Z" fill="#FFD983"/>
</g>
<circle cx="562.739" cy="169.255" r="16.7214" fill="#82CDEF"/>
<circle cx="820.043" cy="432.019" r="37.1965" fill="#82CDEF"/>
<circle cx="833.01" cy="169.255" r="12.6263" fill="#82CDEF"/>
<circle cx="527.248" cy="144.685" r="37.1965" fill="#3555F5"/>
<circle cx="716.985" cy="223.173" r="7.16631" fill="#E2EEF4"/>
<circle cx="596.181" cy="402.672" r="16.7214" fill="#E2EEF4"/>
<circle cx="782.846" cy="455.566" r="12.2851" fill="#E2EEF4"/>
</g>
<defs>
<clipPath id="clip0_140_334">
<rect width="1148" height="600" fill="white"/>
</clipPath>
<clipPath id="clip1_140_334">
<rect width="146.784" height="146.784" fill="white" transform="translate(158.032 295.86) rotate(37.3672)"/>
</clipPath>
<clipPath id="clip2_140_334">
<rect width="82.4511" height="82.4511" fill="white" transform="translate(181.481 381.271) rotate(35.8295)"/>
</clipPath>
</defs>
</svg>
