<svg width="400" height="405" viewBox="0 0 400 405" fill="none" xmlns="http://www.w3.org/2000/svg">
<path d="M254.492 63.9099L155.554 62.6425C155.554 62.6425 151.4 62.8182 148.888 63.971C146.375 65.1239 145.149 65.9486 142.887 67.918C140.587 69.9196 138.911 72.2486 138.04 74.3786C137.169 76.5087 136.546 82.1653 136.546 82.1653L133.564 331.535C133.564 331.535 133.749 334.762 135.106 337.75C135.841 339.37 137.072 340.597 138.461 341.939C140.197 343.616 141.955 344.871 145.308 346.197C148.66 347.523 152.257 348.081 152.257 348.081L251.509 349.383C251.509 349.383 256.053 348.956 260.059 346.832C261.967 345.82 263.534 343.874 264.838 342.432C266.284 340.833 267.565 339.226 268.289 337.089C269.362 333.924 269.505 330.384 269.505 330.384L272.766 81.3633C272.766 81.3633 272.951 79.396 271.715 76.4753C271.098 75.019 270.08 73.0048 268.917 71.5529C267.565 69.8643 263.918 66.3881 262.244 65.7236M254.492 63.9099C254.492 63.9099 258.128 63.7036 262.244 65.7236M254.492 63.9099C254.492 63.9099 258.966 64.4227 262.244 65.7236" stroke="#E2EEF4" stroke-width="20"/>
<path d="M149.298 54.8315L248.236 56.0989C248.236 56.0989 251.871 55.8925 255.987 57.9125C257.662 58.577 261.308 62.0533 262.661 63.7418C263.824 65.1937 264.842 67.2079 265.458 68.6643C266.695 71.5849 266.51 73.5522 266.51 73.5522L263.249 322.573C263.249 322.573 263.106 326.113 262.033 329.278C261.308 331.415 260.027 333.022 258.582 334.621C257.278 336.063 255.711 338.009 253.803 339.021C249.797 341.145 245.252 341.572 245.252 341.572L146 340.27C146 340.27 142.404 339.712 139.051 338.386C135.699 337.06 133.94 335.805 132.205 334.128C130.816 332.786 129.585 331.559 128.849 329.939C127.492 326.951 127.308 323.724 127.308 323.724L130.29 74.3542C130.29 74.3542 130.913 68.6977 131.784 66.5676C132.654 64.4375 134.331 62.1086 136.63 60.1069C138.892 58.1376 140.119 57.3128 142.631 56.16C145.144 55.0071 149.298 54.8315 149.298 54.8315Z" fill="#3555F5"/>
<path d="M248.236 56.0989L149.298 54.8315C149.298 54.8315 145.144 55.0071 142.631 56.16C140.119 57.3128 138.892 58.1376 136.63 60.1069C134.331 62.1086 132.654 64.4375 131.784 66.5676C130.913 68.6977 130.29 74.3542 130.29 74.3542L127.308 323.724C127.308 323.724 127.492 326.951 128.849 329.939C129.585 331.559 130.816 332.786 132.205 334.128C133.94 335.805 135.699 337.06 139.051 338.386C142.404 339.712 146 340.27 146 340.27L245.252 341.572C245.252 341.572 249.797 341.145 253.803 339.021C255.711 338.009 257.278 336.063 258.582 334.62C260.027 333.022 261.308 331.415 262.033 329.278C263.106 326.113 263.249 322.573 263.249 322.573L266.51 73.5523C266.51 73.5523 266.695 71.5849 265.458 68.6643C264.842 67.2079 263.824 65.1937 262.661 63.7418C261.308 62.0533 257.662 58.577 255.987 57.9125M248.236 56.0989C248.236 56.0989 251.871 55.8925 255.987 57.9125M248.236 56.0989C248.236 56.0989 252.709 56.6116 255.987 57.9125" stroke="white" stroke-width="10"/>
<path d="M161.341 56.5789C161.341 56.5789 161.436 56.5706 161.578 56.5807L235.225 57.1395C235.225 57.1395 233.949 57.9369 233.628 58.4192C233.307 58.9014 232.988 62.1293 232.53 63.9611C232.267 65.0129 232.315 65.7001 231.75 66.6257C231.01 67.8389 229.727 68.8291 228.91 68.9007C228.093 68.9722 169.695 67.3724 169.056 67.3017C168.416 67.2311 166.581 66.4857 165.538 65.4567C164.59 64.5208 163.843 64.0523 163.405 62.7939C162.889 61.3097 163.011 57.5725 162.585 57.0399C162.304 56.6887 161.852 56.6002 161.578 56.5807L161.341 56.5789Z" fill="white"/>
<path d="M161.341 56.5789C161.341 56.5789 162.158 56.5074 162.585 57.0399C163.011 57.5725 162.889 61.3097 163.405 62.7939C163.843 64.0523 164.59 64.5208 165.538 65.4567C166.581 66.4857 168.416 67.2311 169.056 67.3017C169.695 67.3724 228.093 68.9722 228.91 68.9007C229.727 68.8291 231.01 67.8389 231.75 66.6257C232.315 65.7001 232.267 65.0129 232.53 63.9611C232.988 62.1293 233.307 58.9014 233.628 58.4192C233.949 57.9369 235.225 57.1395 235.225 57.1395L161.341 56.5789Z" stroke="white" stroke-width="3"/>
<path d="M190.155 58.0359C188.223 57.995 186.623 59.5284 186.582 61.461C186.541 63.3935 188.074 64.9934 190.007 65.0344L190.155 58.0359ZM206.311 65.38C208.244 65.421 209.844 63.8876 209.885 61.955C209.925 60.0224 208.392 58.4226 206.459 58.3816L206.311 65.38ZM190.007 65.0344L206.311 65.38L206.459 58.3816L190.155 58.0359L190.007 65.0344Z" fill="#C9C7C7"/>
<circle cx="212.85" cy="61.9481" r="1.36467" transform="rotate(-38.6934 212.85 61.9481)" fill="#C9C7C7"/>
<g clip-path="url(#clip0_143_395)">
<path d="M209.235 149.096C183.413 149.096 162.479 169.469 162.479 194.599C162.479 204.811 165.98 214.209 171.818 221.802L144.533 248.356L156.031 259.546L183.653 232.663C191.008 237.352 199.786 240.102 209.235 240.102C235.056 240.102 255.99 219.728 255.99 194.599C255.99 169.469 235.056 149.096 209.235 149.096ZM209.235 228.232C190.179 228.232 174.676 213.144 174.676 194.599C174.676 176.054 190.179 160.966 209.235 160.966C228.291 160.966 243.793 176.054 243.793 194.599C243.793 213.144 228.291 228.232 209.235 228.232Z" fill="#4BADD9"/>
<path d="M206.263 144.082C180.441 144.082 159.507 164.455 159.507 189.585C159.507 199.797 163.008 209.194 168.846 216.787L141.561 243.341L153.059 254.531L180.681 227.649C188.036 232.338 196.814 235.088 206.263 235.088C232.084 235.088 253.018 214.714 253.018 189.585C253.018 164.455 232.084 144.082 206.263 144.082ZM206.263 223.217C187.207 223.217 171.704 208.13 171.704 189.585C171.704 171.039 187.207 155.952 206.263 155.952C225.319 155.952 240.821 171.039 240.821 189.585C240.821 208.13 225.319 223.217 206.263 223.217Z" fill="#82CDEF"/>
<path d="M197.089 183.407L184.67 183.407L184.67 212.384L197.089 212.384L197.089 183.407Z" fill="#03B8EF"/>
<path d="M213.647 166.849L201.229 166.849L201.229 212.384L213.647 212.384L213.647 166.849Z" fill="#82CDEF"/>
<path d="M230.205 175.128L217.787 175.128L217.787 212.384L230.205 212.384L230.205 175.128Z" fill="black"/>
</g>
<defs>
<clipPath id="clip0_143_395">
<rect width="115.551" height="115.551" fill="white" transform="translate(140.526 144.082)"/>
</clipPath>
</defs>
</svg>
